<?xml version="1.0" encoding="UTF-8" standalone="no"?>
<svg
   xmlns:dc="http://purl.org/dc/elements/1.1/"
   xmlns:cc="http://creativecommons.org/ns#"
   xmlns:rdf="http://www.w3.org/1999/02/22-rdf-syntax-ns#"
   xmlns:svg="http://www.w3.org/2000/svg"
   xmlns="http://www.w3.org/2000/svg"
   xmlns:sodipodi="http://sodipodi.sourceforge.net/DTD/sodipodi-0.dtd"
   xmlns:inkscape="http://www.inkscape.org/namespaces/inkscape"
   width="500"
   height="524"
   viewBox="0 0 500 524"
   fill="none"
   version="1.1"
   id="svg1302"
   sodipodi:docname="trivy.svg"
   inkscape:version="0.92.5 (2060ec1f9f, 2020-04-08)">
  <metadata
     id="metadata1308">
    <rdf:RDF>
      <cc:Work
         rdf:about="">
        <dc:format>image/svg+xml</dc:format>
        <dc:type
           rdf:resource="http://purl.org/dc/dcmitype/StillImage" />
        <dc:title></dc:title>
      </cc:Work>
    </rdf:RDF>
  </metadata>
  <defs
     id="defs1306" />
  <sodipodi:namedview
     pagecolor="#ffffff"
     bordercolor="#666666"
     borderopacity="1"
     objecttolerance="10"
     gridtolerance="10"
     guidetolerance="10"
     inkscape:pageopacity="0"
     inkscape:pageshadow="2"
     inkscape:window-width="640"
     inkscape:window-height="480"
     id="namedview1304"
     showgrid="false"
     inkscape:zoom="1.5631411"
     inkscape:cx="517.33352"
     inkscape:cy="174.0742"
     inkscape:current-layer="svg1302" />
  <path
     d="M 246.17012,300.94864 C 218.11521,289.57148 201.53124,265.24387 202.41433,239.41327 L 142.44374,208.2042 c -4.47298,29.89998 2.6734,61.17425 20.67107,88.27383 19.15719,28.84501 46.82251,50.32872 83.05717,62.76754 v -58.29693 z"
     id="path1244"
     inkscape:connector-curvature="0"
     style="fill:#1904da;stroke-width:1.76117682" />
  <path
     d="m 248.44094,362.21817 -3.08155,-1.05829 c -36.04543,-12.37529 -64.37122,-33.78377 -84.1963,-63.63024 -18.09413,-27.24502 -25.54291,-59.066 -20.96976,-89.59963 l 0.45269,-3.02777 64.07808,33.34906 -0.0409,1.2255 c -0.87012,25.40762 15.78065,48.80397 42.41631,59.60434 l 1.34133,0.54337 z M 144.28229,211.52624 c -3.51197,28.68117 3.81808,58.35544 20.77867,83.90017 18.71935,28.18295 45.23071,48.63177 78.83465,60.81813 V 302.2594 c -27.10876,-11.53433 -44.13427,-35.51417 -43.78363,-61.67747 z"
     id="path1246"
     inkscape:connector-curvature="0"
     style="fill:none;stroke-width:1.76117682" />
  <path
     d="M 246.16828,433.14118 V 366.14043 C 207.3604,353.36722 177.63019,330.37547 157.22813,299.65461 137.92995,270.59558 130.58506,236.9138 136.0543,204.88383 L 80.313663,175.87666 C 48.381297,280.90275 120.02876,392.76351 246.16828,433.14118 Z"
     id="path1248"
     inkscape:connector-curvature="0"
     style="fill:#1904da;stroke-width:1.76117682" />
  <path
     d="m 248.43908,436.04024 -3.03145,-0.9697 C 183.95657,415.40081 133.02841,378.00746 101.99769,329.77861 70.978102,281.56817 62.497806,226.71699 78.118916,175.33161 l 0.781053,-2.55797 59.634791,31.03351 -0.23561,1.38599 c -5.42843,31.79088 1.9888,64.9644 20.87699,93.40649 20.71188,31.18735 50.2417,53.2629 87.76948,65.61478 l 1.49161,0.49154 v 71.33429 z M 81.747761,178.98469 C 51.978605,282.37568 121.14004,389.55517 243.89375,430.22207 v -62.6572 c -37.82089,-12.77321 -67.629,-35.26172 -88.61361,-66.86033 -19.15905,-28.84501 -26.84345,-62.43817 -21.70258,-94.74735 z"
     id="path1250"
     inkscape:connector-curvature="0"
     style="fill:none;stroke-width:1.76117682" />
  <path
     d="m 254.38512,365.52517 v 67.611 C 378.1926,391.82224 452.50975,280.15708 421.11911,176.2194 l -55.43824,29.10583 c 6.91819,34.54781 0.88495,68.22792 -17.66001,96.40418 -19.05329,28.95202 -52.32328,50.67816 -93.63574,63.79576 z"
     id="path1252"
     inkscape:connector-curvature="0"
     style="fill:#08b1d5;stroke-width:1.76117682" />
  <path
     d="m 252.11246,436.08203 v -72.00471 l 1.51759,-0.48151 c 42.20667,-13.40349 74.16872,-35.15805 92.4391,-62.90798 18.25369,-27.74324 24.26466,-60.5891 17.37432,-94.9948 l -0.28386,-1.41273 59.3732,-31.17228 0.77734,2.57637 c 31.27376,103.54647 -42.57958,217.47703 -168.1347,259.37612 z m 4.54533,-69.11068 V 430.1786 C 377.12585,388.55204 448.11098,279.32282 419.68317,179.34581 l -51.48844,27.0327 c 6.64174,34.87718 0.35435,68.17776 -18.21844,96.3975 -18.59505,28.25485 -50.84096,50.43071 -93.3185,64.19534 z"
     id="path1254"
     inkscape:connector-curvature="0"
     style="fill:none;stroke-width:1.76117682" />
  <path
     d="m 299.58244,239.70251 c 0.2486,25.0816 -16.10903,47.15047 -45.19546,61.24613 v 58.29693 c 38.6539,-12.69796 69.87571,-33.52462 87.73794,-60.66599 17.29638,-26.27868 23.17935,-57.63486 17.24628,-89.93901 z"
     id="path1256"
     inkscape:connector-curvature="0"
     style="fill:#08b1d5;stroke-width:1.76117682" />
  <path
     d="m 252.11246,362.17137 v -62.44822 l 1.19848,-0.58014 c 28.19776,-13.66765 44.2363,-35.32524 43.99513,-59.42378 l -0.013,-1.19541 63.78494,-33.13507 0.53246,2.91576 c 6.07219,33.08326 0.013,64.6618 -17.53386,91.31833 -17.7602,26.98921 -48.50521,48.27065 -88.91415,61.54541 z m 4.54533,-60.00727 v 54.13226 c 37.90067,-13.00056 66.73664,-33.27885 83.51355,-58.76172 16.47267,-25.0331 22.48365,-54.57864 17.46336,-85.63056 l -55.78144,28.98044 c -0.27458,24.84086 -16.66004,47.06355 -45.19547,61.27958 z"
     id="path1258"
     inkscape:connector-curvature="0"
     style="fill:none;stroke-width:1.76117682" />
  <path
     d="m 308.21672,150.07279 c 23.38528,10.27708 42.43116,26.73844 55.08017,47.60524 0.16697,0.27418 0.32281,0.56007 0.48608,0.83761 l 54.3789,-28.29831 c -0.86454,-0.98139 -1.6957,-1.97451 -2.37842,-2.96928 C 395.83593,138.16897 369.4804,116.2907 337.45158,102.21176 247.03467,62.476757 136.23982,92.436924 83.306163,170.32265 l 54.247167,28.21807 c 36.83391,-53.36655 110.97851,-74.69645 170.66339,-48.46793 z"
     id="path1260"
     inkscape:connector-curvature="0"
     style="fill:#ffc900;stroke-width:1.76117682" />
  <path
     d="m 362.88689,201.34782 -1.58066,-2.67168 C 348.8817,178.17048 330.17904,162.0067 307.22416,151.91521 249.21457,126.42232 175.53378,147.37939 139.48463,199.62578 l -1.16323,1.6819 -58.169143,-30.2611 1.217036,-1.79226 C 134.7408,90.728926 247.67101,60.48454 338.44597,100.37436 c 32.42401,14.24947 59.09306,36.38689 79.26879,65.80035 0.64005,0.92622 1.4211,1.85412 2.22813,2.77199 l 1.63818,1.8608 z M 86.476764,169.60875 136.79824,195.78712 c 37.68362,-52.76968 112.97476,-73.67325 172.41474,-47.55173 23.43351,10.29714 42.5833,26.68996 55.4568,47.45644 l 50.12668,-26.08475 c -0.33765,-0.42632 -0.65304,-0.85265 -0.94617,-1.27731 -19.72304,-28.74304 -45.7576,-50.36886 -77.39498,-64.27392 C 248.42423,65.3748 139.12472,94.196414 86.476764,169.60875 Z"
     id="path1262"
     inkscape:connector-curvature="0"
     style="fill:none;stroke-width:1.76117682" />
  <path
     d="m 274.25843,212.26522 c 9.68064,4.25494 17.53016,11.12472 22.70256,19.86365 0.17439,0.29592 0.32837,0.60522 0.49349,0.90615 l 60.38802,-31.4264 c -0.18924,-0.32099 -0.37106,-0.64869 -0.56401,-0.96635 -11.96257,-19.73659 -29.96766,-35.30517 -52.06725,-45.01548 -56.46234,-24.81745 -126.68682,-4.57427 -161.71743,46.00524 l 60.05963,31.24083 c 15.65079,-22.62226 45.9357,-31.49328 70.70499,-20.60764 z"
     id="path1264"
     inkscape:connector-curvature="0"
     style="fill:#ffc900;stroke-width:1.76117682" />
  <path
     d="m 296.48234,235.90565 -1.53614,-2.82882 c -4.93123,-8.34104 -12.43381,-14.90486 -21.68588,-18.97421 h 0.004 c -23.63759,-10.37907 -52.77226,-1.84743 -67.78484,19.85362 l -1.15953,1.68024 -64.00202,-33.29055 1.24672,-1.79896 c 36.06399,-52.06749 106.84875,-72.17356 164.64129,-46.7626 22.52445,9.89756 40.87462,25.76039 53.06538,45.87483 l 1.61592,2.72853 z m -44.45337,-30.30122 c 7.89776,0 15.80848,1.55653 23.22573,4.81837 h 0.004 c 9.74743,4.28838 17.72124,11.10967 23.11813,19.76836 l 56.42151,-29.3633 c -11.73252,-18.98425 -29.20516,-33.96768 -50.57937,-43.36199 -54.134,-23.78423 -122.85204,-4.6863 -157.53386,43.4623 l 56.13766,29.19946 c 11.66945,-15.67559 30.3851,-24.5232 49.2065,-24.5232 z"
     id="path1266"
     inkscape:connector-curvature="0"
     style="fill:none;stroke-width:1.76117682" />
  <path
     d="M 491.23414,139.41119 427.2377,173.00937 C 460.9919,281.16022 383.58578,397.724 254.38512,439.70668 v 73.22017 L 491.23228,388.53197 V 139.41119 Z"
     id="path1268"
     inkscape:connector-curvature="0"
     style="fill:#08b1d5;stroke-width:1.76117682" />
  <path
     d="m 252.11246,516.48963 v -78.22077 l 1.50088,-0.4882 C 382.87894,395.77457 458.18492,279.71571 425.05037,173.56109 l -0.47495,-1.52643 68.92953,-36.1896 v 253.86223 l -1.12798,0.59352 z m 4.54533,-75.34847 v 68.22123 L 488.95961,387.35663 V 142.97564 L 429.8981,173.9824 c 32.45926,107.38513 -43.27158,224.22642 -173.24031,267.15876 z"
     id="path1270"
     inkscape:connector-curvature="0"
     style="fill:none;stroke-width:1.76117682" />
  <path
     d="M 10.109583,139.33595 V 388.46342 L 246.17198,512.92517 V 439.70499 C 114.61887,398.71541 39.904714,281.93764 74.191375,172.68335 L 13.113214,140.89749 Z"
     id="path1272"
     inkscape:connector-curvature="0"
     style="fill:#1904da;stroke-width:1.76117682" />
  <path
     d="M 248.44094,516.49632 7.8332056,389.63876 V 135.78988 l 69.0241464,35.91708 -0.47865,1.53481 C 42.490916,281.22041 117.39988,397.41469 246.91037,437.77063 l 1.53057,0.47816 z M 12.380396,387.28975 243.89745,509.3557 V 441.16121 C 113.66714,399.84895 38.301787,282.86219 71.527252,173.66475 L 12.380396,142.88369 Z"
     id="path1274"
     inkscape:connector-curvature="0"
     style="fill:none;stroke-width:1.76117682" />
  <path
     d="m 13.500958,134.01434 6.973842,3.62967 56.889033,29.59235 C 132.09337,86.560583 246.82132,55.517037 340.45521,96.662778 c 33.21247,14.597222 60.51787,37.251252 81.1574,67.336812 0.65304,0.9513 1.56581,1.9979 2.55281,3.09634 L 487.78896,133.98592 250.67094,10.585149 Z"
     id="path1276"
     inkscape:connector-curvature="0"
     style="fill:#ffc900;stroke-width:1.76117682" />
  <path
     d="M 78.144888,170.00666 8.9574801,134.01267 250.67464,8.2175933 l 1.13727,0.5901752 240.52796,125.1764815 -68.71248,35.75492 -1.22075,-1.35423 c -1.06118,-1.17366 -2.02776,-2.29382 -2.72533,-3.312 -20.41134,-29.74951 -47.40135,-52.14608 -80.21866,-66.572762 -91.9345,-40.39523 -206.20049,-9.72953 -260.158237,69.801172 z m -60.096739,-35.99232 58.54205,30.45504 C 132.22137,84.425587 248.10328,53.799845 341.44775,94.821196 c 33.60765,14.770254 61.22843,37.681764 82.09617,68.100024 0.33207,0.48485 0.73651,0.98977 1.17992,1.51808 L 483.24363,133.98592 250.67094,12.947354 Z"
     id="path1278"
     inkscape:connector-curvature="0"
     style="fill:none;stroke-width:1.76117682" />
  <path
     d="m 254.11426,294.16582 c 23.33889,-11.76339 37.35152,-30.59214 38.24944,-51.48067 0,0 0.10388,-2.07315 -0.0704,-5.43196 -0.0353,-0.69048 -5.17427,-11.70986 -20.83619,-19.40556 -21.02728,-10.33391 -50.87064,-0.39288 -62.82208,19.40556 0,0 -0.28757,2.42758 -0.15212,5.43196 0.85711,18.98257 13.83635,41.2738 36.8172,51.48067 l 4.66035,2.0029 z"
     id="path1280"
     inkscape:connector-curvature="0"
     style="fill:#ff445f;stroke-width:1.76117682" />
  <path
     d="m 250.01604,298.46255 -5.69002,-2.44764 c -25.1793,-11.18323 -37.27917,-34.79692 -38.11402,-53.24449 -0.14286,-3.11974 0.15027,-5.62924 0.16512,-5.73458 l 0.26158,-0.7607 c 6.02396,-9.97278 16.68603,-17.97609 29.25341,-21.95685 12.79743,-4.056 26.15885,-3.4257 36.65393,1.7304 15.8827,7.80435 21.92522,19.24505 22.01798,21.1092 0.18182,3.47418 0.0704,5.61586 0.0704,5.61586 -0.93133,21.6392 -15.29644,41.02637 -39.41083,53.1793 z m -39.16223,-60.59744 c -0.0669,0.77575 -0.19481,2.61483 -0.0982,4.73644 0.74951,16.6804 12.19819,39.35616 35.54822,49.72685 l 3.59546,1.54649 3.12051,-1.50469 c 22.68771,-11.4407 36.20126,-29.57897 37.07137,-49.7653 0.004,-0.0585 0.0982,-2.04974 -0.0669,-5.25641 -0.46566,-1.31076 -5.95346,-10.96757 -19.65625,-17.70358 -9.36154,-4.60103 -21.3742,-5.131 -32.97315,-1.4629 -11.36334,3.59957 -21.00872,10.76025 -26.54104,19.6831 z"
     id="path1282"
     inkscape:connector-curvature="0"
     style="fill:none;stroke-width:1.76117682" />
</svg>
