<?xml version="1.0" encoding="iso-8859-1"?>
<!-- Generator: Adobe Illustrator 25.2.1, SVG Export Plug-In . SVG Version: 6.00 Build 0)  -->
<svg version="1.1" id="_x30_1" xmlns="http://www.w3.org/2000/svg" xmlns:xlink="http://www.w3.org/1999/xlink" x="0px" y="0px"
	 width="273.277px" height="312.341px" viewBox="0 0 273.277 312.341" enable-background="new 0 0 273.277 312.341"
	 xml:space="preserve">
<g display="none">
	<g display="inline">
		<path id="XMLID_238_" fill="#F6921E" d="M754.885-766.991c-21.65-2.012-36.066-7.554-55.471-17.526
			c-34.765-17.865-71.511-25.264-109.482-29.708c-7.552-0.884-15.107-1.971-22.551-3.503c-30.631-6.306-41.022-20.345-31.022-50.036
			c8.852-26.284,8.129-51.529,4.062-77.9c-3.886-25.202,5.516-42.009,30.232-49.091c26.958-7.724,46.055-23.279,62.176-45.683
			c22.552-31.342,50.43-32.387,75.678-2.592c13.29,15.683,24.5,33.868,33.206,52.53c15.16,32.498,33.741,62.384,56.465,90.012
			c8.997,10.939,16.637,23.055,24.312,35.009c14.177,22.079,18.196,45.43,4.449,69.026
			C812.894-772.342,790.61-767.179,754.885-766.991z"/>
	</g>
</g>
<g>
	<path fill="#FFFFFF" d="M134.241,178.01c-14.966-6.734-23.812-21.134-23.341-36.425l-31.99-18.474
		c-2.386,17.699,1.426,36.211,11.026,52.252c10.219,17.074,24.977,29.791,44.305,37.154V178.01L134.241,178.01z"/>
	<path fill="#FFFFFF" d="M134.241,256.256v-39.66c-20.701-7.561-36.56-21.171-47.443-39.355
		c-10.295-17.201-14.212-37.138-11.295-56.097l-29.733-17.17C28.736,166.142,66.954,232.356,134.241,256.256z"/>
	<path fill="#FFFFFF" d="M138.623,216.235v40.021c66.042-24.455,105.685-90.553,88.941-152.077l-29.572,17.228
		c3.69,20.45,0.473,40.386-9.42,57.065C178.408,195.609,160.66,208.469,138.623,216.235z"/>
	<path fill="#FFFFFF" d="M162.732,141.756c0.133,14.847-8.593,27.909-24.109,36.253v34.508c20.619-7.517,37.273-19.844,46.802-35.91
		c9.226-15.555,12.364-34.116,9.199-53.238L162.732,141.756z"/>
	<path fill="#FFFFFF" d="M167.338,88.702c12.474,6.083,22.634,15.828,29.381,28.179c0.089,0.163,0.172,0.332,0.26,0.496
		l29.007-16.751c-0.461-0.581-0.905-1.169-1.269-1.758c-10.641-17.213-24.699-30.163-41.784-38.496
		c-48.231-23.521-107.332-5.786-135.568,40.317l28.937,16.703C95.95,85.802,135.501,73.176,167.338,88.702z"/>
	<path fill="#FFFFFF" d="M114.557,143.696c0.395,12.594,7.426,24.256,19.684,30.297v-18.6L114.557,143.696z"/>
	<path fill="#FFFFFF" d="M158.428,139.64c-0.105-0.216-0.208-0.433-0.321-0.645c-2.395-4.49-6.021-8.015-10.487-10.193
		c-11.485-5.598-25.573-0.979-32.947,10.739l21.968,12.68L158.428,139.64z"/>
	<path fill="#FFFFFF" d="M149.224,125.515c5.164,2.519,9.351,6.585,12.11,11.758c0.094,0.175,0.175,0.358,0.263,0.537l32.213-18.602
		c-0.101-0.19-0.198-0.384-0.301-0.572c-6.381-11.683-15.985-20.898-27.774-26.646c-30.119-14.69-67.578-2.707-86.265,27.232
		l32.037,18.492C119.857,124.323,136.011,119.072,149.224,125.515z"/>
	<path fill="#FFFFFF" d="M264.965,82.39l-34.137,19.888c18.006,64.017-23.286,133.016-92.204,157.866v43.341l126.341-73.633V82.39z"
		/>
	<path fill="#FFFFFF" d="M8.319,82.347v147.466l125.922,73.672v-43.341c-70.174-24.263-110.029-93.387-91.739-158.058L9.921,83.271
		L8.319,82.347z"/>
	<path fill="#FFFFFF" d="M138.623,155.413v18.581c12.219-7.071,19.799-18.339,20.386-30.068L138.623,155.413z"/>
	<path fill="#FFFFFF" d="M10.129,79.195l3.72,2.148L44.196,98.86c29.195-47.754,90.394-66.13,140.341-41.775
		c17.716,8.64,32.282,22.051,43.292,39.859c0.349,0.563,0.835,1.182,1.362,1.832l33.939-19.599L136.643,6.134L10.129,79.195z"/>
</g>
</svg>
