<?xml version="1.0" encoding="utf-8"?>
<!-- Generator: Adobe Illustrator 28.0.0, SVG Export Plug-In . SVG Version: 6.00 Build 0)  -->
<svg version="1.1" id="Layer_1" xmlns="http://www.w3.org/2000/svg" xmlns:xlink="http://www.w3.org/1999/xlink" x="0px" y="0px"
	 viewBox="0 0 1920 891" style="enable-background:new 0 0 1920 891;" xml:space="preserve">
<style type="text/css">
	.st0{fill:#031730;}
	.st1{fill:#08B1D5;}
	.st2{fill:#1904DA;}
	.st3{fill:#FFC900;}
	.st4{fill:#FF0036;}
</style>
<g>
	<g>
		<g>
			<g>
				<g>
					<path class="st0" d="M1437.8,277.53h-46.05c-25.39,0-46.05-20.66-46.05-46.05c0-25.39,20.66-46.05,46.05-46.05
						c25.39,0,46.05,20.66,46.05,46.05V277.53z M1391.75,204.13c-15.08,0-27.35,12.27-27.35,27.35c0,15.08,12.27,27.35,27.35,27.35
						h27.35v-27.35C1419.1,216.4,1406.84,204.13,1391.75,204.13z"/>
				</g>
			</g>
			<g>
				<g>
					<path class="st0" d="M1746.82,277.53h-46.05c-25.39,0-46.05-20.66-46.05-46.05c0-25.39,20.66-46.05,46.05-46.05
						c25.39,0,46.05,20.66,46.05,46.05V277.53z M1700.77,204.13c-15.08,0-27.35,12.27-27.35,27.35c0,15.08,12.27,27.35,27.35,27.35
						h27.35v-27.35C1728.12,216.4,1715.85,204.13,1700.77,204.13z"/>
				</g>
			</g>
			<g>
				<path class="st0" d="M1597.76,277.55c-25.4,0-46.07-20.66-46.07-46.07v-43.22h18.71v43.22c0,15.09,12.28,27.36,27.36,27.36
					s27.36-12.28,27.36-27.36v-43.22h18.71v43.22C1643.83,256.88,1623.16,277.55,1597.76,277.55z"/>
			</g>
			<g>
				<path class="st0" d="M1494.75,185.43c-25.39,0-46.05,20.66-46.05,46.05c0,25.39,20.66,46.05,46.05,46.05l18.7-18.7h-18.7
					c-15.08,0-27.35-12.27-27.35-27.35c0-15.08,12.27-27.35,27.35-27.35s27.35,12.27,27.35,27.35v90h18.7v-90
					C1540.8,206.09,1520.14,185.43,1494.75,185.43z"/>
			</g>
		</g>
	</g>
	<g>
		<g>
			<path class="st0" d="M968.09,578.05v45.38c-30.92,0-58.76-11.12-80.72-29.55c-27.59-23.17-45.14-57.93-45.14-96.78V269.82h45.14
				v103.14h80.72v45.68h-80.72v79.6C887.98,542.42,923.77,578.05,968.09,578.05z"/>
			<path class="st0" d="M1128.93,372.97v45.08c-42.79,0.09-77.63,34.03-79.2,76.45v128.94h-45.21V372.96h45.21v28.59
				C1071.24,383.73,1098.84,373.01,1128.93,372.97z"/>
			<path class="st0" d="M1157.94,347.93v-39.5h45.14v39.5H1157.94z M1157.94,623.44V372.96h45.14v250.48H1157.94z"/>
			<path class="st0" d="M1479.86,372.96l-125.14,250.48l-125.3-250.48h51.3l73.99,147.93l73.84-147.93H1479.86z"/>
			<path class="st0" d="M1750.5,372.96c0,0,0,273.85,0,291.97c0,69.91-57.37,125.75-125.32,125.69
				c-31.84,0.03-61.33-12.05-83.7-32.11l32.45-32.45c13.85,11.74,31.73,18.85,51.25,18.82c43.98,0,79.58-35.97,79.58-79.95v-69.99
				c-21.82,18.06-49.68,28.52-79.58,28.49c-68.1,0.06-125.44-54.9-125.44-125.35c0-1.49,0-125.13,0-125.13h45.73
				c0,0,0.02,121.79,0.02,125.13c0,43.8,35.68,80,79.69,79.96c43.98,0,79.58-35.97,79.58-79.96V372.96H1750.5z"/>
		</g>
	</g>
	<g>
		<g>
			<g>
				<path class="st1" d="M463.95,358.89c0.04,0,0.08,0,0.12,0c6.43,0.01,11.75-4.93,11.75-11.36V134.47l-11.99-6.7l-11.94,6.67
					v213.1c0,6.43,5.32,11.38,11.75,11.35C463.73,358.89,463.84,358.89,463.95,358.89z"/>
				<path class="st2" d="M392.02,455.6L194.35,588.27v15.11l11.26,6.17L405.34,475.5c5.13-3.44,6.41-10.31,3.09-15.52
					c-0.14-0.22-0.28-0.44-0.42-0.67C404.58,453.78,397.42,451.98,392.02,455.6z"/>
				<path class="st3" d="M522.51,475.6l199.56,133.93l11.23-6.15v-15.14L535.83,455.71c-5.4-3.62-12.56-1.83-16,3.69
					c-0.13,0.21-0.26,0.42-0.4,0.63C516.09,465.26,517.36,472.15,522.51,475.6z"/>
				<path class="st0" d="M757.23,277.9V264.2l-12.26-6.85l-0.91-0.48L475.5,106.89l-11.68-6.51l-11.63,6.51L183.58,256.88
					l-0.91,0.48l-12.25,6.85v13.69l-0.91,0.53l0.91,0.48v13.64v325.01l12.45,6.8l261.62,143.33l3.3,1.82l16.08,8.81l16.04-8.81
					l3.3-1.82l261.62-143.33l12.4-6.8V292.55v-13.6l0.96-0.53L757.23,277.9z M476.11,744.33V502.51c0-6.59-5.39-11.98-11.98-11.97
					l-0.18,0l-0.12,0c-6.59-0.01-11.98,5.38-11.98,11.97v241.81L205.61,609.55l-11.26-6.17v-15.11V290.06l196.06,107.42
					c5.66,3.1,12.84,1.02,15.97-4.63l0.14-0.25c3.16-5.71,1.06-12.96-4.67-16.1L208.33,270.47l243.55-136.03l11.94-6.67l11.99,6.7
					l243.5,136.01L525.64,376.58c-5.7,3.12-7.48,10.25-4.32,15.92c0.05,0.1,0.11,0.19,0.16,0.29c3.1,5.62,10.02,7.85,15.65,4.77
					l196.16-107.5v298.19v15.14l-11.23,6.15L476.11,744.33z"/>
			</g>
			<circle class="st4" cx="463.95" cy="424.72" r="34.73"/>
		</g>
		<path class="st1" d="M649.35,258.97L461.77,153.83c-5.77-3.23-7.82-10.53-4.59-16.29v0c3.23-5.77,10.53-7.82,16.29-4.59
			l187.58,105.15c5.77,3.23,7.82,10.53,4.59,16.29v0C662.41,260.15,655.12,262.2,649.35,258.97z"/>
		<path class="st1" d="M567.15,267.09l-105.38-59.07c-5.77-3.23-7.82-10.53-4.59-16.29v0c3.23-5.77,10.53-7.82,16.29-4.59
			l105.38,59.07c5.77,3.23,7.82,10.53,4.59,16.29l0,0C580.21,268.26,572.92,270.32,567.15,267.09z"/>
		<path class="st1" d="M601.67,286.44L601.67,286.44c-5.77-3.23-7.82-10.53-4.59-16.29v0c3.23-5.77,10.53-7.82,16.29-4.59l0,0
			c5.77,3.23,7.82,10.53,4.59,16.29v0C614.73,287.61,607.44,289.67,601.67,286.44z"/>
		<path class="st1" d="M497.04,283.82l-35-19.62c-5.77-3.23-7.82-10.53-4.59-16.29v0c3.23-5.77,10.53-7.82,16.29-4.59l35,19.62
			c5.77,3.23,7.82,10.53,4.59,16.29l0,0C510.1,284.99,502.8,287.05,497.04,283.82z"/>
		<path class="st1" d="M549.85,316.05l-20.26-11.36c-5.77-3.23-7.82-10.53-4.59-16.29h0c3.23-5.77,10.53-7.82,16.29-4.59
			l20.26,11.36c5.77,3.23,7.82,10.53,4.59,16.29v0C562.91,317.23,555.61,319.28,549.85,316.05z"/>
	</g>
</g>
</svg>
