<?xml version="1.0" encoding="iso-8859-1"?>
<!-- Generator: Adobe Illustrator 26.3.1, SVG Export Plug-In . SVG Version: 6.00 Build 0)  -->
<svg version="1.1" id="_x30_1" xmlns="http://www.w3.org/2000/svg" xmlns:xlink="http://www.w3.org/1999/xlink" x="0px" y="0px"
	 viewBox="0 0 500 524" enable-background="new 0 0 500 524" xml:space="preserve">
<g display="none">
	<g display="inline">
		<path fill="#07242D" d="M-483.763,450.803h-11.559l-22.557-22.807c-0.919,0.114-1.853,0.174-2.802,0.174v22.632h-8.238v-63.931
			h8.239c0,0-0.016,33.158,0,33.158c4.013,0,7.684-1.656,10.29-4.32l9.86-10.073h11.814l-16.032,15.918
			c-1.42,1.421-3.031,2.655-4.787,3.659L-483.763,450.803z"/>
		<path fill="#07242D" d="M-438.316,405.517v22.819c0,0,0,0.033,0,0.049c0,12.39-10.039,22.418-22.429,22.418
			c-12.389,0-22.421-10.059-22.421-22.448c0-0.017,0-22.837,0-22.837h7.989v22.819c0,7.967,6.466,14.457,14.433,14.457
			c7.966,0,14.424-6.491,14.424-14.457v-22.819H-438.316z"/>
		<path fill="#07242D" d="M-385.244,428.166c0,12.501-10.133,22.636-22.636,22.636c-5.485,0-10.514-1.95-14.431-5.196v5.196h-8.218
			c0.005-0.516,0.005-63.931,0.005-63.931h8.217l-0.004,23.854c3.918-3.246,8.947-5.196,14.432-5.196
			C-395.377,405.529-385.242,415.664-385.244,428.166z M-393.437,428.166c0-7.976-6.466-14.441-14.442-14.441
			c-7.793,0-14.443,6.329-14.443,14.418c0,8.089,6.649,14.464,14.443,14.464C-399.903,442.607-393.437,436.142-393.437,428.166z"/>
		<path fill="#07242D" d="M-335.539,431.11h-36.518c1.375,6.517,7.157,11.435,14.075,11.435c4.514,0,8.538-2.095,11.172-5.362h9.577
			c-3.496,8.008-11.475,13.619-20.748,13.619c-12.489,0-22.644-10.173-22.644-22.676c0-12.503,10.155-22.608,22.644-22.608
			C-344.426,405.411-333.664,417.688-335.539,431.11z M-344.611,422.85c-2.103-5.316-7.296-9.06-13.371-9.06
			c-6.076,0-11.275,3.746-13.382,9.06H-344.611z"/>
		<path fill="#07242D" d="M-306.194,420.895v7.548h-23.302v-7.548H-306.194z"/>
		<path fill="#07242D" d="M-252.987,428.166c0,12.501-10.133,22.636-22.636,22.636c-5.485,0-10.514-1.95-14.431-5.196v5.196h-8.218
			c0.005-0.516,0.005-63.931,0.005-63.931h8.218l-0.004,23.854c3.918-3.246,8.946-5.196,14.431-5.196
			C-263.12,405.529-252.985,415.664-252.987,428.166z M-261.181,428.166c0-7.976-6.467-14.441-14.442-14.441
			c-7.794,0-14.443,6.329-14.443,14.418c0,8.089,6.649,14.464,14.443,14.464C-267.647,442.607-261.181,436.142-261.181,428.166z"/>
		<path fill="#07242D" d="M-203.283,431.11h-36.518c1.375,6.517,7.157,11.435,14.075,11.435c4.514,0,8.538-2.095,11.172-5.362h9.577
			c-3.496,8.008-11.475,13.619-20.748,13.619c-12.489,0-22.644-10.173-22.644-22.676c0-12.503,10.155-22.608,22.644-22.608
			C-212.17,405.411-201.408,417.688-203.283,431.11z M-212.355,422.85c-2.103-5.316-7.296-9.06-13.371-9.06
			c-6.076,0-11.275,3.746-13.382,9.06H-212.355z"/>
		<path fill="#07242D" d="M-151.113,428.114c0,15.871,0,22.688,0,22.688h-8.262c0,0,0-14.878,0-22.688
			c0-8.095-6.591-14.327-14.363-14.327c-7.772,0-14.393,6.163-14.393,14.327c0,7.814,0,22.688,0,22.688h-8.26v-45.285
			c0,0,3.539,0,8.26,0v5.101c0,0,5.421-5.101,14.393-5.101C-163.095,405.517-151.113,413.789-151.113,428.114z"/>
		<path fill="#07242D" d="M-112.598,438.373l5.799,5.798c-4.098,4.097-9.758,6.632-16.01,6.632c-6.252,0-11.912-2.534-16.01-6.632
			c-4.097-4.098-6.632-9.758-6.632-16.01s2.534-11.912,6.632-16.01c4.098-4.097,9.758-6.632,16.01-6.632
			c6.252,0,11.912,2.534,16.01,6.632l-5.799,5.799c-2.613-2.615-6.224-4.231-10.212-4.231c-3.988,0-7.599,1.617-10.212,4.231
			c-2.614,2.613-4.23,6.224-4.23,10.212s1.616,7.599,4.23,10.213c2.613,2.613,6.224,4.229,10.212,4.229
			C-118.821,442.602-115.211,440.986-112.598,438.373z"/>
		<path fill="#07242D" d="M-55.678,428.174c0,15.827,0,22.626,0,22.626h-8.239c0,0,0-14.838,0-22.626
			c0-8.072-6.575-14.287-14.324-14.287c-7.751,0-14.353,6.146-14.353,14.287c0,7.793,0,22.626,0,22.626h-8.238v-63.929h8.238v23.856
			c0,0,5.405-5.086,14.353-5.086C-67.626,405.641-55.678,413.889-55.678,428.174z"/>
	</g>
	<g display="inline">
		<path fill="#07242D" d="M186.582,442.579v8.203c-5.588,0-10.623-2.012-14.594-5.346c-4.989-4.186-8.157-10.469-8.157-17.489
			v-41.085h8.157v18.642h14.594v8.257h-14.594v14.386C172.1,436.134,178.571,442.579,186.582,442.579z"/>
		<path fill="#07242D" d="M215.674,405.503v8.149c-7.739,0.015-14.037,6.152-14.317,13.818v23.312h-8.176v-45.279h8.176v5.169
			C205.243,407.446,210.232,405.51,215.674,405.503z"/>
		<path fill="#07242D" d="M220.928,395.003v-8.165h8.161v8.165H220.928z M220.928,450.782v-45.279h8.161v45.279H220.928z"/>
		<path fill="#07242D" d="M279.137,405.503l-22.624,45.279l-22.647-45.279h9.271l13.376,26.737l13.349-26.737H279.137z"/>
		<path fill="#07242D" d="M328.08,405.503c0,0,0,49.504,0,52.776c0,12.643-10.369,22.736-22.655,22.728
			c-5.753,0-11.084-2.181-15.131-5.807l5.868-5.868c2.504,2.12,5.734,3.41,9.263,3.403c7.95,0,14.386-6.498,14.386-14.456v-12.651
			c-3.944,3.264-8.979,5.154-14.386,5.154c-12.309,0.008-22.674-9.924-22.674-22.659c0-0.269,0-22.62,0-22.62h8.265
			c0,0,0.004,22.014,0.004,22.62c0,7.919,6.448,14.463,14.406,14.456c7.95,0,14.386-6.506,14.386-14.456v-22.62H328.08z"/>
	</g>
	<g display="inline">
		<path fill="#07242D" d="M1186.898,438.384c-0.411,4.687-4.656,12.67-15.302,12.67c-10.092,0-16.135-6.761-16.135-6.761
			l5.797-5.801c4.906,4.664,10.338,4.372,10.338,4.372c3.473-0.238,6.258-2.643,6.469-5.471c0.242-3.235-2.009-5.486-6.469-6.124
			c-2.098-0.307-7.184-0.791-11.36-4.533c-1.36-1.222-6.489-6.577-2.217-14.191c0.834-1.491,4.556-6.769,13.577-6.769
			c0,0,7.434-0.53,14.311,5.086l-5.866,5.863c-1.16-0.96-4.46-2.904-8.444-2.881c-7.207,0.046-7.007,4.011-7.007,4.011
			c0.061,3.166,2.874,4.864,7.007,5.409C1185.672,425.114,1187.309,433.743,1186.898,438.384z"/>
		<path fill="#07242D" d="M1215.419,442.848v8.206c-5.59,0-10.626-2.013-14.599-5.348c-4.99-4.188-8.16-10.473-8.16-17.495v-41.099
			h8.16v18.648h14.599v8.26h-14.599v14.391C1200.932,436.401,1207.405,442.848,1215.419,442.848z"/>
		<path fill="#07242D" d="M1263.522,428.372v22.682h-22.705c-0.5,0-0.999-0.015-1.495-0.054c-6.431-0.423-12.128-3.527-15.985-8.214
			c-3.289-4.003-5.171-8.928-5.186-14.414c0.526-25.548,35.106-31.264,44.03-7.699
			C1263.068,423.132,1263.522,425.76,1263.522,428.372z M1255.131,428.372c0.054-12.824-15.563-19.132-24.433-10.135l-0.004-0.008
			c-2.609,2.605-4.226,6.17-4.226,10.142c0,7.937,6.435,14.399,14.368,14.399c3.976,0,14.295,0,14.295,0
			S1255.131,432.352,1255.131,428.372z"/>
		<path fill="#07242D" d="M1293.898,405.76v8.152c-7.741,0.015-14.042,6.154-14.322,13.823v23.319h-8.179V405.76h8.179v5.171
			C1283.464,407.704,1288.454,405.767,1293.898,405.76z"/>
		<path fill="#07242D" d="M1344.448,428.411c0,12.509-10.135,22.643-22.639,22.643c-5.486,0-10.515-1.952-14.433-5.194v5.194h-8.221
			c0.008-0.515,0.008-63.942,0.008-63.942h8.217l-0.004,23.857c3.919-3.25,8.947-5.202,14.433-5.202
			C1334.313,405.767,1344.452,415.91,1344.448,428.411z M1336.254,428.411c0-7.975-6.466-14.445-14.445-14.445
			c-7.795,0-14.445,6.331-14.445,14.422c0,8.091,6.65,14.468,14.445,14.468C1329.788,442.856,1336.254,436.394,1336.254,428.411z"/>
		<path fill="#07242D" d="M1394.394,428.411c0,12.509-10.15,22.643-22.643,22.643s-22.651-10.135-22.651-22.643
			s10.157-22.651,22.651-22.651S1394.394,415.91,1394.394,428.411z M1386.127,428.411c0-7.937-6.431-14.376-14.376-14.376
			c-7.941,0-14.387,6.431-14.387,14.376s6.446,14.383,14.387,14.383C1379.696,442.794,1386.127,436.355,1386.127,428.411z"/>
		<path fill="#07242D" d="M1444.414,428.372v22.682h-22.705c-0.499,0-0.999-0.015-1.494-0.054
			c-6.431-0.423-12.128-3.527-15.985-8.214c-3.289-4.003-5.171-8.928-5.186-14.414c0.526-25.548,35.106-31.264,44.03-7.699
			C1443.961,423.132,1444.414,425.76,1444.414,428.372z M1436.024,428.372c0.054-12.824-15.563-19.132-24.433-10.135l-0.004-0.008
			c-2.609,2.605-4.226,6.17-4.226,10.142c0,7.937,6.435,14.399,14.368,14.399c3.976,0,14.295,0,14.295,0
			S1436.024,432.352,1436.024,428.372z"/>
		<path fill="#07242D" d="M1474.791,405.76v8.152c-7.741,0.015-14.042,6.154-14.322,13.823v23.319h-8.179V405.76h8.179v5.171
			C1464.356,407.704,1469.347,405.767,1474.791,405.76z"/>
		<path fill="#07242D" d="M1521.556,451.031h-8.214v-5.194c-3.919,3.242-8.951,5.194-14.43,5.194
			c-12.501,0-22.635-10.127-22.635-22.628s10.135-22.636,22.635-22.636c5.478,0,10.511,1.952,14.43,5.194l0.008-23.85h8.221
			C1521.572,387.112,1521.556,450.516,1521.556,451.031z M1513.35,428.38c0-8.091-6.646-14.422-14.437-14.422
			c-7.975,0-14.445,6.469-14.445,14.445s6.469,14.437,14.445,14.437C1506.704,442.84,1513.35,436.471,1513.35,428.38z"/>
	</g>
	<g display="inline">
		<path fill="#07242D" d="M1711.171,438.276l5.802,5.802c-4.1,4.096-9.763,6.632-16.014,6.632c-6.255,0-11.918-2.536-16.018-6.632
			c-4.1-4.103-6.635-9.759-6.635-16.014s2.536-11.918,6.635-16.022c4.1-4.096,9.763-6.632,16.018-6.632
			c6.251,0,11.915,2.536,16.014,6.632l-5.802,5.802c-2.613-2.613-6.224-4.234-10.213-4.234c-3.992,0-7.604,1.621-10.216,4.234
			c-2.617,2.613-4.234,6.224-4.234,10.22c0,3.988,1.618,7.6,4.234,10.213c2.613,2.613,6.224,4.234,10.216,4.234
			C1704.947,442.511,1708.559,440.889,1711.171,438.276z"/>
		<path fill="#07242D" d="M1722.967,450.71v-63.95h8.241v63.95H1722.967z"/>
		<path fill="#07242D" d="M1783.282,428.064c0,12.51-10.151,22.646-22.646,22.646c-12.495,0-22.654-10.136-22.654-22.646
			s10.159-22.654,22.654-22.654C1773.131,405.41,1783.282,415.561,1783.282,428.064z M1775.013,428.064
			c0-7.938-6.432-14.378-14.378-14.378c-7.942,0-14.389,6.432-14.389,14.378c0,7.946,6.447,14.385,14.389,14.385
			C1768.581,442.449,1775.013,436.01,1775.013,428.064z"/>
		<path fill="#07242D" d="M1833.833,405.41v22.823c0,0,0,0.038,0,0.054c0,12.395-10.04,22.423-22.435,22.423
			c-12.395,0-22.427-10.059-22.427-22.454c0-0.015,0-22.846,0-22.846h7.992v22.823c0,7.976,6.466,14.462,14.435,14.462
			c7.969,0,14.431-6.486,14.431-14.462V405.41H1833.833z"/>
		<path fill="#07242D" d="M1884.777,450.687h-8.218v-5.195c-3.915,3.243-8.945,5.195-14.431,5.195
			c-12.503,0-22.634-10.128-22.634-22.631c0-12.503,10.132-22.638,22.634-22.638c5.487,0,10.516,1.952,14.431,5.195l0.011-23.852
			h8.219C1884.789,386.76,1884.773,450.172,1884.777,450.687z M1876.574,428.033c0-8.092-6.651-14.424-14.447-14.424
			c-7.973,0-14.443,6.47-14.443,14.447c0,7.976,6.466,14.439,14.443,14.439C1869.923,442.495,1876.574,436.125,1876.574,428.033z"/>
		<path fill="#07242D" d="M1922.865,438.038c-0.411,4.687-4.657,12.672-15.303,12.672c-10.094,0-16.137-6.762-16.137-6.762
			l5.798-5.802c4.906,4.664,10.339,4.372,10.339,4.372c3.473-0.238,6.259-2.643,6.47-5.471c0.242-3.235-2.009-5.487-6.47-6.124
			c-2.098-0.307-7.185-0.792-11.361-4.534c-1.36-1.222-6.489-6.578-2.217-14.193c0.834-1.491,4.557-6.77,13.578-6.77
			c0,0,7.435-0.53,14.312,5.087l-5.867,5.863c-1.16-0.961-4.461-2.905-8.445-2.882c-7.208,0.046-7.008,4.011-7.008,4.011
			c0.062,3.166,2.874,4.864,7.008,5.41C1921.639,424.767,1923.276,433.397,1922.865,438.038z"/>
		<path fill="#07242D" d="M1975.107,428.041c0,12.526-10.151,22.73-22.661,22.73c-5.471,0-10.493-1.952-14.416-5.195v35.371h-8.276
			V405.41h8.276v5.156c3.923-3.22,8.945-5.156,14.416-5.156C1964.956,405.41,1975.107,415.523,1975.107,428.041z M1966.831,428.041
			c0-7.953-6.432-14.347-14.385-14.347s-14.416,6.393-14.416,14.347s6.463,14.462,14.416,14.462S1966.831,435.994,1966.831,428.041z
			"/>
		<path fill="#07242D" d="M1981.877,450.71v-63.95h8.245v63.95H1981.877z"/>
		<path fill="#07242D" d="M2042.192,428.064c0,12.51-10.151,22.646-22.646,22.646c-12.495,0-22.654-10.136-22.654-22.646
			s10.159-22.654,22.654-22.654C2032.041,405.41,2042.192,415.561,2042.192,428.064z M2033.916,428.064
			c0-7.938-6.432-14.378-14.37-14.378c-7.946,0-14.393,6.432-14.393,14.378c0,7.946,6.447,14.385,14.393,14.385
			C2027.484,442.449,2033.916,436.01,2033.916,428.064z"/>
		<path fill="#07242D" d="M2049.016,394.906v-8.168h8.168v8.168H2049.016z M2049.016,450.71v-45.3h8.168v45.3H2049.016z"/>
		<path fill="#07242D" d="M2087.737,442.503v8.207c-5.594,0-10.627-2.013-14.6-5.348c-4.987-4.188-8.161-10.474-8.161-17.497V386.76
			h8.161v18.65h14.6v8.261h-14.6v14.393C2073.252,436.056,2079.722,442.503,2087.737,442.503z"/>
	</g>
	<g display="inline">
		<path fill="#07242D" d="M690.837,442.596v8.206c-5.59,0-10.626-2.013-14.599-5.348c-4.99-4.188-8.16-10.473-8.16-17.495V386.86
			h8.16v18.648h14.599v8.26h-14.599v14.391C676.35,436.15,682.823,442.596,690.837,442.596z"/>
		<path fill="#07242D" d="M719.939,405.508v8.152c-7.737,0.015-14.042,6.154-14.322,13.823v23.319h-8.179v-45.294h8.179v5.171
			C709.504,407.452,714.495,405.516,719.939,405.508z"/>
		<path fill="#07242D" d="M766.789,428.12v22.682h-22.705c-0.499,0-0.999-0.015-1.494-0.054c-6.431-0.423-12.128-3.527-15.985-8.214
			c-3.289-4.003-5.171-8.928-5.183-14.414c0.523-25.548,35.102-31.264,44.026-7.699C766.335,422.88,766.789,425.508,766.789,428.12z
			 M758.398,428.12c0.054-12.824-15.563-19.132-24.433-10.135l-0.004-0.008c-2.609,2.605-4.226,6.17-4.226,10.142
			c0,7.937,6.435,14.399,14.368,14.399c3.976,0,14.295,0,14.295,0S758.398,432.101,758.398,428.12z"/>
		<path fill="#07242D" d="M805.36,438.37l5.801,5.801c-4.099,4.095-9.762,6.631-16.016,6.631c-6.254,0-11.913-2.536-16.012-6.631
			c-4.099-4.103-6.631-9.766-6.631-16.02c0-6.247,2.532-11.909,6.631-16.012c4.099-4.095,9.758-6.631,16.012-6.631
			c6.254,0,11.917,2.536,16.016,6.631l-5.801,5.801c-2.612-2.612-6.224-4.234-10.215-4.234c-3.988,0-7.599,1.621-10.211,4.234
			c-2.616,2.612-4.234,6.224-4.234,10.211c0,3.995,1.617,7.607,4.234,10.219c2.612,2.612,6.224,4.234,10.211,4.234
			C799.136,442.604,802.747,440.983,805.36,438.37z"/>
		<path fill="#07242D" d="M858.664,431.109h-36.527c1.375,6.516,7.161,11.433,14.08,11.433c4.514,0,8.54-2.098,11.172-5.363h9.581
			c-3.5,8.014-11.479,13.623-20.753,13.623c-12.493,0-22.647-10.173-22.647-22.682c0-12.501,10.154-22.612,22.647-22.612
			C849.774,405.4,860.539,417.679,858.664,431.109z M849.59,422.842c-2.105-5.317-7.295-9.059-13.373-9.059
			s-11.276,3.742-13.385,9.059H849.59z"/>
		<path fill="#07242D" d="M908.514,431.109h-36.527c1.375,6.516,7.161,11.433,14.08,11.433c4.514,0,8.54-2.098,11.172-5.363h9.581
			c-3.5,8.014-11.479,13.623-20.753,13.623c-12.493,0-22.647-10.173-22.647-22.682c0-12.501,10.154-22.612,22.647-22.612
			C899.625,405.4,910.389,417.679,908.514,431.109z M899.44,422.842c-2.105-5.317-7.295-9.059-13.373-9.059
			s-11.276,3.742-13.385,9.059H899.44z"/>
	</g>
</g>
<g>
	<path fill="#07242D" d="M186.351,471.553v8.229c-5.606,0-10.656-2.019-14.639-5.363c-5.005-4.199-8.182-10.502-8.182-17.544v-41.21
		h8.182v18.699h14.639v8.282h-14.639v14.43C171.824,465.089,178.316,471.553,186.351,471.553z"/>
	<path fill="#07242D" d="M215.533,434.363v8.175c-7.762,0.016-14.08,6.172-14.361,13.86v23.384h-8.202v-45.419h8.202v5.185
		C205.069,436.313,210.074,434.371,215.533,434.363z"/>
	<path fill="#07242D" d="M220.803,423.832v-8.191h8.186v8.191H220.803z M220.803,479.782v-45.419h8.186v45.419H220.803z"/>
	<path fill="#07242D" d="M279.191,434.363l-22.694,45.419l-22.716-45.419h9.3l13.417,26.82l13.39-26.82H279.191z"/>
	<path fill="#07242D" d="M328.286,434.363c0,0,0,49.656,0,52.938c0,12.682-10.402,22.805-22.725,22.798
		c-5.771,0-11.118-2.188-15.178-5.824l5.887-5.887c2.512,2.126,5.751,3.42,9.291,3.413c7.975,0,14.431-6.519,14.431-14.5v-12.689
		c-3.956,3.275-9.006,5.17-14.431,5.17c-12.346,0.007-22.743-9.954-22.743-22.728c0-0.27,0-22.69,0-22.69h8.291
		c0,0,0.004,22.082,0.004,22.69c0,7.944,6.468,14.508,14.45,14.5c7.975,0,14.431-6.526,14.431-14.5v-22.691H328.286z"/>
</g>
<g>
	<polygon fill="#FFFFFF" points="250.554,44.159 116.876,121.396 116.877,277.11 250.537,354.962 384.229,277.154 384.229,121.392 	
		"/>
	<g>
		<path fill="#1904DA" d="M246.902,255.524v-32.282c-14.609-6.898-23.783-21.236-23.594-36.882l-30.086-17.374
			c-1.892,17.15,2.057,34.896,11.198,50.171C214.507,236.009,228.793,248.237,246.902,255.524z"/>
		<path fill="#1904DA" d="M246.902,299.761v-37.468c-20.381-7.638-36.445-21.086-47.752-39.981
			c-10.325-17.249-14.466-37.337-11.695-56.657l-27.931-16.129C143.482,211.352,180.751,275.442,246.902,299.761z"/>
		<path fill="#08B1D5" d="M253.779,261.938v37.797c64.918-24.892,103.171-90.209,87.852-149.994l-27.747,16.165
			c3.578,20.856,0.191,40.77-9.818,57.644C294.046,240.446,276.67,253.707,253.779,261.938z"/>
		<path fill="#08B1D5" d="M253.779,223.185v32.371c20.424-7.774,35.964-19.9,45.004-35.138c8.877-14.969,12.116-32.637,9.411-51.205
			l-30.06,17.33C277.985,201.395,269.156,214.685,253.779,223.185z"/>
		<path fill="#FFC900" d="M282.1,131.138c12.628,6.157,22.948,15.961,29.885,28.378l27.012-15.598
			c-0.182-0.255-0.351-0.51-0.509-0.764c-10.628-17.188-24.658-30.12-41.707-38.435c-47.439-23.13-106.339-5.896-134.71,39.2
			l27.117,15.654C209.496,128.018,250.069,115.518,282.1,131.138z"/>
		<path fill="#FFC900" d="M251.284,165.445c4.256,0,8.519,0.931,12.516,2.881h0.002c5.253,2.564,9.549,6.643,12.458,11.821
			l30.404-17.558c-6.323-11.352-15.738-20.312-27.257-25.93c-29.172-14.223-66.203-2.802-84.893,25.99l30.251,17.46
			C231.056,170.735,241.141,165.445,251.284,165.445z"/>
		<path fill="#08B1D5" d="M253.779,347.086l125.184-72.957V127.993l-31.828,18.542c17.491,64.215-23.319,134.084-93.356,159.757
			V347.086z"/>
		<path fill="#1904DA" d="M154.014,146.345l-31.873-18.406v146.151l124.761,72.993v-40.779
			C176.723,281.599,136.109,211.643,154.014,146.345z"/>
		<path fill="#FFC900" d="M299.471,99.198c18.111,8.832,32.995,22.533,44.241,40.722c0.179,0.289,0.397,0.592,0.636,0.908
			l31.536-18.21l-125.33-72.378l-125.358,72.395l31.548,18.211C186.722,92.98,249.169,74.667,299.471,99.198z"/>
		<path fill="#FF0036" d="M271.797,187.57c0.002-0.035,0.052-1.226-0.036-3.143c-0.251-0.783-3.208-6.558-10.592-10.586
			c-5.045-2.751-11.518-3.068-17.769-0.874c-6.124,2.152-11.322,6.434-14.303,11.769c-0.036,0.464-0.105,1.563-0.052,2.832
			c0.404,9.974,6.573,23.534,19.156,29.736l1.938,0.925l1.682-0.899C264.046,210.487,271.328,199.641,271.797,187.57z"/>
	</g>
</g>
<g>
	<path fill="#07242D" d="M186.846,398.474H175.2c-6.421,0-11.646-5.224-11.646-11.646c0-6.422,5.224-11.646,11.646-11.646
		s11.646,5.224,11.646,11.646V398.474z M175.2,379.912c-3.814,0-6.916,3.103-6.916,6.916c0,3.814,3.103,6.916,6.916,6.916h6.916
		v-6.916C182.117,383.015,179.014,379.912,175.2,379.912z"/>
	<path fill="#07242D" d="M264.991,398.474h-11.646c-6.421,0-11.646-5.224-11.646-11.646c0-6.422,5.224-11.646,11.646-11.646
		c6.421,0,11.646,5.224,11.646,11.646V398.474z M253.345,379.912c-3.814,0-6.916,3.103-6.916,6.916c0,3.814,3.103,6.916,6.916,6.916
		h6.916v-6.916C260.261,383.015,257.159,379.912,253.345,379.912z"/>
	<path fill="#07242D" d="M227.295,398.479c-6.424,0-11.651-5.226-11.651-11.651V375.9h4.731v10.928c0,3.815,3.104,6.919,6.919,6.919
		c3.815,0,6.919-3.104,6.919-6.919V375.9h4.731v10.928C238.946,393.253,233.719,398.479,227.295,398.479z"/>
	<path fill="#07242D" d="M201.245,375.183c-6.421,0-11.645,5.224-11.645,11.646c0,6.421,5.224,11.646,11.645,11.646l4.729-4.729
		h-4.729c-3.814,0-6.916-3.103-6.916-6.916c0-3.814,3.103-6.916,6.916-6.916c3.814,0,6.916,3.103,6.916,6.916v22.76h4.729v-22.76
		C212.891,380.407,207.666,375.183,201.245,375.183z"/>
</g>
</svg>
