<?xml version="1.0" encoding="iso-8859-1"?>
<!-- Generator: Adobe Illustrator 26.3.1, SVG Export Plug-In . SVG Version: 6.00 Build 0)  -->
<svg version="1.1" id="_x30_1" xmlns="http://www.w3.org/2000/svg" xmlns:xlink="http://www.w3.org/1999/xlink" x="0px" y="0px"
	 viewBox="0 0 265 135" enable-background="new 0 0 265 135" xml:space="preserve">
<g>
	<path fill="#07242D" d="M148.629,103.076v5.928c-4.038,0-7.676-1.454-10.545-3.863c-3.605-3.025-5.894-7.565-5.894-12.638V62.815
		h5.894v13.471h10.545v5.966h-10.545v10.395C138.164,98.419,142.84,103.076,148.629,103.076z"/>
	<path fill="#07242D" d="M169.65,76.285v5.889c-5.591,0.011-10.143,4.446-10.345,9.984v16.845h-5.908V76.285h5.908v3.735
		C162.113,77.689,165.718,76.291,169.65,76.285z"/>
	<path fill="#07242D" d="M173.447,68.698v-5.9h5.897v5.9H173.447z M173.447,109.003V76.285h5.897v32.719H173.447z"/>
	<path fill="#07242D" d="M215.508,76.285l-16.348,32.719l-16.364-32.719h6.699l9.665,19.32l9.646-19.32L215.508,76.285z"/>
	<path fill="#07242D" d="M250.874,76.285c0,0,0,35.771,0,38.135c0,9.136-7.493,16.428-16.37,16.423
		c-4.157,0-8.009-1.576-10.934-4.196l4.24-4.24c1.809,1.532,4.143,2.464,6.693,2.459c5.745,0,10.396-4.696,10.396-10.446v-9.141
		c-2.85,2.359-6.488,3.724-10.396,3.724c-8.894,0.005-16.384-7.171-16.384-16.372c0-0.194,0-16.345,0-16.345h5.972
		c0,0,0.003,15.907,0.003,16.345c0,5.722,4.659,10.451,10.409,10.446c5.745,0,10.396-4.701,10.396-10.446V76.285H250.874z"/>
</g>
<g>
	<polygon fill="#FFFFFF" points="65.469,5.431 10.124,37.409 10.125,101.877 65.462,134.109 120.813,101.895 120.813,37.407 	"/>
	<g>
		<path fill="#1904DA" d="M63.957,92.94V79.575c-6.048-2.856-9.846-8.792-9.768-15.27l-12.456-7.193
			c-0.783,7.101,0.852,14.447,4.636,20.771C50.545,84.86,56.46,89.923,63.957,92.94z"/>
		<path fill="#1904DA" d="M63.957,111.255V95.742c-8.438-3.162-15.089-8.73-19.77-16.553c-4.275-7.141-5.989-15.458-4.842-23.457
			l-11.564-6.678C21.14,74.652,36.57,101.186,63.957,111.255z"/>
		<path fill="#08B1D5" d="M66.804,95.596v15.649c26.877-10.306,42.715-37.348,36.372-62.1l-11.488,6.693
			c1.481,8.635,0.079,16.879-4.065,23.865C83.476,86.697,76.281,92.188,66.804,95.596z"/>
		<path fill="#08B1D5" d="M66.804,79.551v13.402c8.456-3.219,14.89-8.239,18.632-14.548c3.675-6.197,5.016-13.512,3.896-21.2
			L76.888,64.38C76.826,70.53,73.171,76.032,66.804,79.551z"/>
		<path fill="#FFC900" d="M78.53,41.442c5.228,2.549,9.501,6.608,12.373,11.749l11.183-6.458c-0.075-0.106-0.146-0.211-0.211-0.316
			c-4.4-7.116-10.209-12.47-17.267-15.913c-19.641-9.576-44.026-2.441-55.772,16.23l11.227,6.481
			C48.47,40.151,65.268,34.975,78.53,41.442z"/>
		<path fill="#FFC900" d="M65.771,55.646c1.762,0,3.527,0.385,5.182,1.193h0.001c2.175,1.062,3.954,2.75,5.158,4.894L88.7,54.463
			c-2.618-4.7-6.516-8.409-11.285-10.735c-12.078-5.888-27.409-1.16-35.147,10.76l12.525,7.229
			C57.397,57.836,61.572,55.646,65.771,55.646z"/>
		<path fill="#08B1D5" d="M66.804,130.848l51.828-30.205V40.14l-13.177,7.677c7.242,26.586-9.654,55.513-38.651,66.142V130.848z"/>
		<path fill="#1904DA" d="M25.5,47.738l-13.196-7.621v60.509l51.653,30.22v-16.883C34.902,103.736,18.087,74.773,25.5,47.738z"/>
		<path fill="#FFC900" d="M85.722,28.218c7.498,3.656,13.661,9.329,18.316,16.859c0.074,0.12,0.164,0.245,0.263,0.376l13.056-7.539
			L65.469,7.948l-51.9,29.973l13.061,7.54C39.042,25.644,64.896,18.062,85.722,28.218z"/>
		<path fill="#FF0036" d="M74.264,64.806c0.001-0.014,0.022-0.508-0.015-1.301c-0.104-0.324-1.328-2.715-4.385-4.383
			c-2.089-1.139-4.769-1.27-7.357-0.362c-2.536,0.891-4.688,2.664-5.922,4.873c-0.015,0.192-0.044,0.647-0.022,1.173
			c0.167,4.129,2.721,9.743,7.931,12.311l0.802,0.383l0.696-0.372C71.055,74.294,74.07,69.803,74.264,64.806z"/>
	</g>
</g>
<g>
	<path fill="#07242D" d="M149.768,48.152h-8.789c-4.846,0-8.789-3.943-8.789-8.789c0-4.846,3.943-8.789,8.789-8.789
		s8.789,3.943,8.789,8.789V48.152z M140.979,34.143c-2.878,0-5.22,2.342-5.22,5.22c0,2.878,2.342,5.22,5.22,5.22h5.22v-5.22
		C146.199,36.485,143.858,34.143,140.979,34.143z"/>
	<path fill="#07242D" d="M208.745,48.152h-8.789c-4.846,0-8.789-3.943-8.789-8.789c0-4.846,3.943-8.789,8.789-8.789
		c4.846,0,8.789,3.943,8.789,8.789V48.152z M199.956,34.143c-2.878,0-5.22,2.342-5.22,5.22c0,2.878,2.342,5.22,5.22,5.22h5.22v-5.22
		C205.176,36.485,202.835,34.143,199.956,34.143z"/>
	<path fill="#07242D" d="M180.296,48.156c-4.848,0-8.793-3.944-8.793-8.793v-8.248h3.571v8.248c0,2.879,2.343,5.222,5.222,5.222
		c2.879,0,5.222-2.343,5.222-5.222v-8.248h3.571v8.248C189.089,44.211,185.144,48.156,180.296,48.156z"/>
	<path fill="#07242D" d="M160.636,30.574c-4.846,0-8.789,3.943-8.789,8.789c0,4.846,3.943,8.789,8.789,8.789l3.569-3.569h-3.569
		c-2.878,0-5.22-2.342-5.22-5.22c0-2.878,2.342-5.22,5.22-5.22c2.878,0,5.22,2.342,5.22,5.22V56.54h3.569V39.363
		C169.425,34.516,165.482,30.574,160.636,30.574z"/>
</g>
</svg>
