<?xml version="1.0" encoding="utf-8"?>
<!-- Generator: Adobe Illustrator 28.0.0, SVG Export Plug-In . SVG Version: 6.00 Build 0)  -->
<svg version="1.1" id="Layer_1" xmlns="http://www.w3.org/2000/svg" xmlns:xlink="http://www.w3.org/1999/xlink" x="0px" y="0px"
	 viewBox="0 0 1920 891" style="enable-background:new 0 0 1920 891;" xml:space="preserve">
<style type="text/css">
	.st0{fill:#FFFFFF;}
	.st1{fill:#50F0FF;}
	.st2{fill:#0744DD;}
	.st3{fill:#FFC900;}
	.st4{fill:#FF0036;}
</style>
<g>
	<g>
		<path class="st0" d="M1421.86,281.92h-46.97c-25.9,0-46.97-21.07-46.97-46.97c0-25.9,21.07-46.97,46.97-46.97
			c25.9,0,46.97,21.07,46.97,46.97V281.92z M1374.89,207.05c-15.38,0-27.9,12.52-27.9,27.9c0,15.38,12.52,27.9,27.9,27.9h27.9v-27.9
			C1402.79,219.57,1390.28,207.05,1374.89,207.05z"/>
		<path class="st0" d="M1737.06,281.92h-46.97c-25.9,0-46.97-21.07-46.97-46.97c0-25.9,21.07-46.97,46.97-46.97
			c25.9,0,46.97,21.07,46.97,46.97V281.92z M1690.09,207.05c-15.38,0-27.9,12.52-27.9,27.9c0,15.38,12.52,27.9,27.9,27.9h27.9v-27.9
			C1717.98,219.57,1705.47,207.05,1690.09,207.05z"/>
		<path class="st0" d="M1585.02,281.94c-25.91,0-46.99-21.08-46.99-46.99v-44.08h19.08v44.08c0,15.39,12.52,27.91,27.91,27.91
			c15.39,0,27.91-12.52,27.91-27.91v-44.08h19.09v44.08C1632.01,260.86,1610.92,281.94,1585.02,281.94z"/>
		<path class="st0" d="M1479.94,187.98c-25.9,0-46.97,21.07-46.97,46.97c0,25.9,21.07,46.97,46.97,46.97l19.07-19.07h-19.07
			c-15.38,0-27.9-12.52-27.9-27.9c0-15.38,12.52-27.9,27.9-27.9c15.38,0,27.9,12.52,27.9,27.9v91.8h19.07v-91.8
			C1526.91,209.05,1505.84,187.98,1479.94,187.98z"/>
	</g>
	<g>
		<path class="st0" d="M942.76,588.45v46.29c-31.53,0-59.94-11.34-82.34-30.14c-28.15-23.63-46.04-59.08-46.04-98.71V274.06h46.04
			v105.2h82.34v46.59h-82.34v81.19C861.05,552.1,897.55,588.45,942.76,588.45z"/>
		<path class="st0" d="M1106.82,379.26v45.98c-43.65,0.1-79.18,34.71-80.78,77.98v131.52h-46.12V379.26h46.12v29.16
			C1047.97,390.24,1076.12,379.3,1106.82,379.26z"/>
		<path class="st0" d="M1136.4,353.72v-40.29h46.05v40.29H1136.4z M1136.4,634.74V379.26h46.05v255.48H1136.4z"/>
		<path class="st0" d="M1464.76,379.26l-127.64,255.48l-127.8-255.48h52.33l75.47,150.88l75.31-150.88H1464.76z"/>
		<path class="st0" d="M1740.81,379.26c0,0,0,279.32,0,297.8c0,71.31-58.52,128.26-127.83,128.2
			c-32.47,0.03-62.55-12.29-85.37-32.76l33.1-33.09c14.13,11.97,32.36,19.22,52.28,19.2c44.86,0,81.17-36.69,81.17-81.55v-71.39
			c-22.26,18.42-50.67,29.09-81.17,29.06c-69.46,0.06-127.95-56-127.95-127.85c0-1.51,0-127.64,0-127.64h46.64
			c0,0,0.02,124.23,0.02,127.64c0,44.67,36.39,81.6,81.28,81.55c44.86,0,81.17-36.69,81.17-81.55V379.26H1740.81z"/>
	</g>
	<g>
		<g>
			<g>
				<path class="st1" d="M428.54,364.9c0.04,0,0.08,0,0.12,0c6.56,0.01,11.98-5.03,11.98-11.58V135.99l-12.23-6.83l-12.18,6.8
					v217.36c0,6.56,5.43,11.61,11.98,11.58C428.32,364.9,428.43,364.9,428.54,364.9z"/>
				<path class="st2" d="M355.18,463.55L153.55,598.87v15.41l11.49,6.29l203.73-136.73c5.23-3.51,6.53-10.52,3.15-15.84
					c-0.14-0.23-0.29-0.45-0.43-0.68C367.99,461.7,360.68,459.86,355.18,463.55z"/>
				<path class="st3" d="M488.27,483.95l203.55,136.61l11.45-6.28v-15.44L501.86,463.66c-5.51-3.7-12.82-1.87-16.32,3.76
					c-0.13,0.21-0.27,0.43-0.4,0.64C481.73,473.4,483.02,480.43,488.27,483.95z"/>
				<path class="st0" d="M727.69,282.29v-13.96l-12.5-6.98l-0.93-0.49L440.33,107.87l-11.92-6.64l-11.87,6.64L142.56,260.86
					l-0.93,0.49l-12.5,6.98v13.96l-0.93,0.54l0.93,0.49v13.92v331.5l12.69,6.94l266.85,146.2l3.37,1.85l16.41,8.98l16.36-8.98
					l3.37-1.85l266.85-146.2l12.65-6.94v-331.5v-13.87l0.98-0.54L727.69,282.29z M440.95,758.05V511.4c0-6.72-5.5-12.22-12.22-12.21
					l-0.19,0l-0.13,0c-6.72-0.01-12.22,5.49-12.22,12.21v246.64L165.04,620.57l-11.49-6.29v-15.41V294.7l199.98,109.56
					c5.77,3.16,13.1,1.04,16.28-4.72l0.14-0.26c3.22-5.83,1.08-13.22-4.76-16.42L167.81,274.72l248.42-138.75l12.18-6.8l12.23,6.83
					l248.37,138.73L491.47,382.95c-5.81,3.18-7.63,10.45-4.41,16.24c0.05,0.1,0.11,0.2,0.16,0.29c3.16,5.73,10.22,8.01,15.96,4.86
					L703.27,294.7v304.15v15.44l-11.45,6.28L440.95,758.05z"/>
			</g>
			<circle class="st4" cx="428.54" cy="432.05" r="35.42"/>
		</g>
		<path class="st1" d="M617.65,262.99L426.32,155.74c-5.88-3.3-7.98-10.74-4.68-16.62v0c3.3-5.88,10.74-7.98,16.62-4.68
			l191.33,107.25c5.88,3.3,7.98,10.74,4.68,16.62l0,0C630.97,264.19,623.53,266.29,617.65,262.99z"/>
		<path class="st1" d="M533.81,271.27l-107.48-60.25c-5.88-3.3-7.98-10.74-4.68-16.62v0c3.3-5.88,10.74-7.98,16.62-4.68
			l107.48,60.25c5.88,3.3,7.98,10.74,4.68,16.62v0C547.13,272.47,539.69,274.56,533.81,271.27z"/>
		<path class="st1" d="M569.02,291L569.02,291c-5.88-3.3-7.98-10.74-4.68-16.62l0,0c3.3-5.88,10.74-7.98,16.62-4.68v0
			c5.88,3.3,7.98,10.74,4.68,16.62v0C582.34,292.2,574.9,294.3,569.02,291z"/>
		<path class="st1" d="M462.29,288.33l-35.7-20.01c-5.88-3.3-7.98-10.74-4.68-16.62v0c3.3-5.88,10.74-7.98,16.62-4.68l35.7,20.01
			c5.88,3.3,7.98,10.74,4.68,16.62v0C475.61,289.53,468.17,291.63,462.29,288.33z"/>
		<path class="st1" d="M516.16,321.21l-20.67-11.58c-5.88-3.3-7.98-10.74-4.68-16.62v0c3.3-5.88,10.74-7.98,16.62-4.68l20.67,11.58
			c5.88,3.3,7.98,10.74,4.68,16.62v0C529.48,322.41,522.04,324.51,516.16,321.21z"/>
	</g>
</g>
</svg>
