<?xml version="1.0" encoding="iso-8859-1"?>
<!-- Generator: Adobe Illustrator 26.3.1, SVG Export Plug-In . SVG Version: 6.00 Build 0)  -->
<svg version="1.1" id="_x30_1" xmlns="http://www.w3.org/2000/svg" xmlns:xlink="http://www.w3.org/1999/xlink" x="0px" y="0px"
	 viewBox="0 0 500 524" enable-background="new 0 0 500 524" xml:space="preserve">
<g>
	<path fill="#FFFFFF" d="M186.351,471.553v8.229c-5.606,0-10.656-2.019-14.639-5.363c-5.005-4.199-8.182-10.502-8.182-17.544v-41.21
		h8.182v18.699h14.639v8.282h-14.639v14.43C171.824,465.089,178.316,471.553,186.351,471.553z"/>
	<path fill="#FFFFFF" d="M215.533,434.363v8.175c-7.762,0.016-14.08,6.172-14.361,13.86v23.384h-8.202v-45.419h8.202v5.185
		C205.069,436.313,210.074,434.371,215.533,434.363z"/>
	<path fill="#FFFFFF" d="M220.803,423.832v-8.191h8.186v8.191H220.803z M220.803,479.782v-45.419h8.186v45.419H220.803z"/>
	<path fill="#FFFFFF" d="M279.191,434.363l-22.694,45.419l-22.716-45.419h9.3l13.417,26.82l13.39-26.82H279.191z"/>
	<path fill="#FFFFFF" d="M328.286,434.363c0,0,0,49.656,0,52.938c0,12.682-10.402,22.805-22.725,22.798
		c-5.771,0-11.118-2.188-15.178-5.824l5.887-5.887c2.512,2.126,5.751,3.42,9.291,3.413c7.975,0,14.431-6.519,14.431-14.5v-12.689
		c-3.956,3.275-9.006,5.17-14.431,5.17c-12.346,0.007-22.743-9.954-22.743-22.728c0-0.27,0-22.69,0-22.69h8.291
		c0,0,0.004,22.082,0.004,22.69c0,7.944,6.468,14.508,14.45,14.5c7.975,0,14.431-6.526,14.431-14.5v-22.691H328.286z"/>
</g>
<g>
	<polygon fill="#FFFFFF" points="250.554,44.159 116.876,121.396 116.877,277.11 250.537,354.962 384.229,277.154 384.229,121.392 	
		"/>
	<g>
		<path fill="#1904DA" d="M246.902,255.524v-32.282c-14.609-6.898-23.783-21.236-23.594-36.882l-30.086-17.374
			c-1.892,17.15,2.057,34.896,11.198,50.171C214.507,236.009,228.793,248.237,246.902,255.524z"/>
		<path fill="#1904DA" d="M246.902,299.761v-37.468c-20.381-7.638-36.445-21.086-47.752-39.981
			c-10.325-17.249-14.466-37.337-11.695-56.657l-27.931-16.129C143.482,211.352,180.751,275.442,246.902,299.761z"/>
		<path fill="#08B1D5" d="M253.779,261.938v37.797c64.918-24.892,103.171-90.209,87.852-149.994l-27.747,16.165
			c3.578,20.856,0.191,40.77-9.818,57.644C294.046,240.446,276.67,253.707,253.779,261.938z"/>
		<path fill="#08B1D5" d="M253.779,223.185v32.371c20.424-7.774,35.964-19.9,45.004-35.138c8.877-14.969,12.116-32.637,9.411-51.205
			l-30.06,17.33C277.985,201.395,269.156,214.685,253.779,223.185z"/>
		<path fill="#FFC900" d="M282.1,131.138c12.628,6.157,22.948,15.961,29.885,28.378l27.012-15.598
			c-0.182-0.255-0.351-0.51-0.509-0.764c-10.628-17.188-24.658-30.12-41.707-38.435c-47.439-23.13-106.339-5.896-134.71,39.2
			l27.117,15.654C209.496,128.018,250.069,115.518,282.1,131.138z"/>
		<path fill="#FFC900" d="M251.284,165.445c4.256,0,8.519,0.931,12.516,2.881h0.002c5.253,2.564,9.549,6.643,12.458,11.821
			l30.404-17.558c-6.323-11.352-15.738-20.312-27.257-25.93c-29.172-14.223-66.203-2.802-84.893,25.99l30.251,17.46
			C231.056,170.735,241.141,165.445,251.284,165.445z"/>
		<path fill="#08B1D5" d="M253.779,347.086l125.184-72.957V127.993l-31.828,18.542c17.491,64.215-23.319,134.084-93.356,159.757
			V347.086z"/>
		<path fill="#1904DA" d="M154.014,146.345l-31.873-18.406v146.151l124.761,72.993v-40.779
			C176.723,281.599,136.109,211.643,154.014,146.345z"/>
		<path fill="#FFC900" d="M299.471,99.198c18.111,8.832,32.995,22.533,44.241,40.722c0.179,0.289,0.397,0.592,0.636,0.908
			l31.536-18.21l-125.33-72.378l-125.358,72.395l31.548,18.211C186.722,92.98,249.169,74.667,299.471,99.198z"/>
		<path fill="#FF0036" d="M271.797,187.57c0.002-0.035,0.052-1.226-0.036-3.143c-0.251-0.783-3.208-6.558-10.592-10.586
			c-5.045-2.751-11.518-3.068-17.769-0.874c-6.124,2.152-11.322,6.434-14.303,11.769c-0.036,0.464-0.105,1.563-0.052,2.832
			c0.404,9.974,6.573,23.534,19.156,29.736l1.938,0.925l1.682-0.899C264.046,210.487,271.328,199.641,271.797,187.57z"/>
	</g>
</g>
<g>
	<path fill="#FFFFFF" d="M186.846,398.474H175.2c-6.421,0-11.646-5.224-11.646-11.646c0-6.422,5.224-11.646,11.646-11.646
		s11.646,5.224,11.646,11.646V398.474z M175.2,379.912c-3.814,0-6.916,3.103-6.916,6.916c0,3.814,3.103,6.916,6.916,6.916h6.916
		v-6.916C182.117,383.015,179.014,379.912,175.2,379.912z"/>
	<path fill="#FFFFFF" d="M264.991,398.474h-11.646c-6.421,0-11.646-5.224-11.646-11.646c0-6.422,5.224-11.646,11.646-11.646
		c6.421,0,11.646,5.224,11.646,11.646V398.474z M253.345,379.912c-3.814,0-6.916,3.103-6.916,6.916c0,3.814,3.103,6.916,6.916,6.916
		h6.916v-6.916C260.261,383.015,257.159,379.912,253.345,379.912z"/>
	<path fill="#FFFFFF" d="M227.295,398.479c-6.424,0-11.651-5.226-11.651-11.651V375.9h4.731v10.928c0,3.815,3.104,6.919,6.919,6.919
		c3.815,0,6.919-3.104,6.919-6.919V375.9h4.731v10.928C238.946,393.253,233.719,398.479,227.295,398.479z"/>
	<path fill="#FFFFFF" d="M201.245,375.183c-6.421,0-11.645,5.224-11.645,11.646c0,6.421,5.224,11.646,11.645,11.646l4.729-4.729
		h-4.729c-3.814,0-6.916-3.103-6.916-6.916c0-3.814,3.103-6.916,6.916-6.916c3.814,0,6.916,3.103,6.916,6.916v22.76h4.729v-22.76
		C212.891,380.407,207.666,375.183,201.245,375.183z"/>
</g>
</svg>
