<svg version="1.1" id="Layer_2" xmlns="http://www.w3.org/2000/svg" xmlns:xlink="http://www.w3.org/1999/xlink" x="0px" y="0px" viewBox="0 0 240 240" enable-background="new 0 0 240 240" xml:space="preserve"><rect x="106" y="90" fill="#00ffe4" width="2" height="2"/><rect x="74" y="63" fill="#00ffe4" width="1" height="1"/><rect x="23" y="66" fill="#00ffe4" width="1" height="1"/><rect x="50" y="110" fill="#00ffe4" width="1" height="1"/><rect x="63" y="128" fill="#00ffe4" width="1" height="1"/><rect x="45" y="149" fill="#00ffe4" width="1" height="1"/><rect x="92" y="151" fill="#00ffe4" width="1" height="1"/><rect x="58" y="8" fill="#00ffe4" width="1" height="1"/><rect x="147" y="33" fill="#00ffe4" width="2" height="2"/><rect x="91" y="43" fill="#00ffe4" width="1" height="1"/><rect x="169" y="29" fill="#ffffff" width="1" height="1"/><rect x="182" y="19" fill="#00ffe4" width="1" height="1"/><rect x="161" y="59" fill="#00ffe4" width="1" height="1"/><rect x="138" y="95" fill="#00ffe4" width="1" height="1"/><rect x="199" y="71" fill="#ffffff" width="3" height="3"/><rect x="213" y="153" fill="#00ffe4" width="2" height="2"/><rect x="128" y="163" fill="#ffffff" width="1" height="1"/><rect x="205" y="174" fill="#00ffe4" width="1" height="1"/><rect x="152" y="200" fill="#00ffe4" width="1" height="1"/><rect x="52" y="211" fill="#00ffe4" width="2" height="2"/><rect y="191" fill="#00ffe4" width="1" height="1"/><rect x="110" y="184" fill="#00ffe4" width="1" height="1"/></svg>