<svg xmlns="http://www.w3.org/2000/svg" viewBox="0 0 245 125"><polygon points="0.472 31.388 0.472 93.356 53.545 124.407 106.8 93.373 106.8 31.386 53.637 0.661 0.472 31.388" style="fill:#fff"/><path d="M131.25163,55.545h-5.894V85.233a16.45466,16.45466,0,0,0,5.894,12.638,16.27494,16.27494,0,0,0,10.545,3.863V95.806a10.5536,10.5536,0,0,1-10.545-10.429V74.982h10.545V69.016h-10.545Zm21.221,13.47h-5.908v32.718h5.908V84.888a10.373,10.373,0,0,1,10.345-9.984V69.015a16.17608,16.17608,0,0,0-10.345,3.73505Zm85.594,0V85.361a10.40259,10.40259,0,1,1-20.805,0c0-.438-.003-16.345-.003-16.345h-5.972V85.361a16.381,16.381,0,0,0,26.78,12.648v9.141a10.43119,10.43119,0,0,1-10.396,10.44605,10.29519,10.29519,0,0,1-6.693-2.45905l-4.24,4.24a16.36284,16.36284,0,0,0,27.304-12.227V69.015Zm-71.452-7.587h5.897v-5.9h-5.897Zm0,40.305v.001h5.897V69.015h-5.897Zm25.713-13.398-9.665-19.32h-6.699l16.364,32.71906,16.348-32.71906h-6.702Zm.469-47.516c.189.012.379.019.57.019h8.665V32.183a8.65751,8.65751,0,1,0-17.315,0,8.66592,8.66592,0,0,0,8.08,8.636Zm-3.292-12.507.001.001a5.46316,5.46316,0,0,1,9.324,3.869c-.001,1.51794-.001,5.496-.001,5.496h-5.455a5.49348,5.49348,0,0,1-5.482-5.496A5.43583,5.43583,0,0,1,189.50468,28.312Zm-64.19806,3.871a8.6659,8.6659,0,0,0,8.08,8.636c.189.012.379.019.57.019h8.665V32.183a8.6575,8.6575,0,1,0-17.315,0Zm14.113,5.495h-5.455a5.49348,5.49348,0,0,1-5.482-5.496,5.43582,5.43582,0,0,1,1.613-3.87l.001.001a5.46316,5.46316,0,0,1,9.324,3.869C139.41966,33.7,139.41966,37.678,139.41966,37.678Zm42.703-5.395V23.555h-3.056v8.709a5.50651,5.50651,0,1,1-11.013,0V23.555h-3.04895v8.716a8.559,8.559,0,1,0,17.118.012Zm-28.304,8.476h.435l3.164-3.15h-3.599a5.451,5.451,0,1,1,5.463-5.451V52.109h3.129V32.674c.01-.171,0-.344,0-.517a8.597,8.597,0,1,0-8.592,8.602Z" style="fill:#fff"/><path d="M91.34367,41.875l-11.488,6.693a34.62624,34.62624,0,0,1-4.065,23.865c-4.147,6.994-11.342,12.485-20.819,15.893v15.649C81.84867,93.669,97.68663,66.62695,91.34367,41.875Zm-17.74,29.26a31.98649,31.98649,0,0,0,3.896-21.19995l-12.444,7.175c-.062,6.15-3.717,11.652-10.084,15.171V85.683C63.42765,82.464,69.86167,77.444,73.60368,71.135Zm20.019-30.588c7.242,26.586-9.654,55.513-38.651,66.141v16.89l51.828-30.20495V32.87Z" style="fill:#08b1d5"/><path d="M42.35667,57.035l-12.456-7.194a33.49758,33.49758,0,0,0,4.636,20.771,35.54425,35.54425,0,0,0,17.588,15.057V72.305A16.73214,16.73214,0,0,1,42.35667,57.035Zm-10.002,14.884a35.89845,35.89845,0,0,1-4.842-23.457l-11.564-6.677c-6.642,25.597,8.789,52.132,36.176,62.2V88.472A38.1469,38.1469,0,0,1,32.35465,71.919ZM13.6676,40.468.47161,32.847V93.356l51.653,30.22V106.693C23.06958,96.466,6.25457,67.503,13.6676,40.468Z" style="fill:#1904da"/><path d="M72.77665,23.234c-19.642-9.57605-44.027-2.441-55.773,16.23l11.227,6.481c8.407-13.064,25.205-18.24005,38.467-11.773a28.36808,28.36808,0,0,1,12.373,11.749l11.184-6.458c-.075-.105-.146-.211-.211-.316A41.65476,41.65476,0,0,0,72.77665,23.234Zm-7.194,13.224c-12.078-5.888-27.409-1.16-35.147,10.75995l12.524,7.229a13.36076,13.36076,0,0,1,10.979-6.071,11.76712,11.76712,0,0,1,5.182,1.193h.001a11.8682,11.8682,0,0,1,5.158,4.894l12.588-7.27A25.84927,25.84927,0,0,0,65.58262,36.458ZM53.63664.678l-51.9,29.973,13.061,7.54c12.412-19.817,38.266-27.399,59.092-17.243a44.15041,44.15041,0,0,1,18.316,16.859c.074.12.164.245.263.376l13.056-7.539Z" style="fill:#ffc900"/><path d="M62.41667,56.236a10.02465,10.02465,0,0,0-4.385-4.383,9.116,9.116,0,0,0-7.357-.362,10.95872,10.95872,0,0,0-5.921,4.871,10.12583,10.12583,0,0,0-.022,1.173,14.94968,14.94968,0,0,0,7.931,12.311l.802.383.696-.372c5.062-2.833,8.077-7.323,8.27106-12.32C62.43266,57.523,62.45365,57.029,62.41667,56.236Z" style="fill:#ff445f"/></svg>