<svg width="214" height="63" viewBox="0 0 214 63" fill="none" xmlns="http://www.w3.org/2000/svg">
<g clip-path="url(#clip0_105_3432)">
<g clip-path="url(#clip1_105_3432)">
<path d="M91.1057 16.7456C93.9686 16.7456 96.4222 17.33 98.4665 18.4988C100.511 19.6676 102.079 21.2859 103.169 23.3538C104.305 25.3767 104.873 27.7143 104.873 30.3665C104.873 30.9509 104.851 31.5128 104.805 32.0523C104.759 32.5467 104.669 33.0188 104.533 33.4683H84.018C84.063 38.0985 84.9265 41.4251 86.6078 43.448C88.3341 45.4709 90.8333 46.4824 94.1048 46.4824C96.3765 46.4824 98.2166 46.1227 99.6255 45.4034C101.034 44.6393 102.329 43.5828 103.51 42.2343L104.601 43.2457C103.237 45.7182 101.374 47.6512 99.012 49.0447C96.6946 50.3933 93.923 51.0676 90.6971 51.0676C87.4706 51.0676 84.6309 50.3933 82.1773 49.0447C79.7238 47.6961 77.7931 45.7631 76.3842 43.2457C75.0209 40.6833 74.3398 37.6265 74.3398 34.0752C74.3398 30.389 75.1346 27.2647 76.7253 24.7024C78.3611 22.1401 80.451 20.1846 82.9952 18.8359C85.585 17.4424 88.2885 16.7456 91.1057 16.7456ZM90.7652 18.7011C89.4475 18.7011 88.2885 19.0832 87.2895 19.8474C86.3348 20.5667 85.5625 21.8703 84.9721 23.7584C84.4266 25.6015 84.1086 28.2088 84.018 31.5803H96.2172C96.7171 27.0399 96.5359 23.7584 95.6724 21.7354C94.8089 19.7125 93.1732 18.7011 90.7652 18.7011Z" fill="white"/>
<path d="M125.043 51.0676C121.953 51.0676 119.159 50.4158 116.66 49.1121C114.16 47.7635 112.184 45.8305 110.73 43.3131C109.321 40.7508 108.617 37.649 108.617 34.0078C108.617 30.3666 109.413 27.2647 111.003 24.7024C112.593 22.1401 114.706 20.1846 117.341 18.8359C120.022 17.4424 122.953 16.7456 126.133 16.7456C128.723 16.7456 130.927 17.1727 132.744 18.0268C134.561 18.8809 135.947 19.9823 136.902 21.3309C137.856 22.6345 138.333 24.0281 138.333 25.5116C138.333 26.7703 137.947 27.7367 137.174 28.4111C136.447 29.0853 135.493 29.4225 134.311 29.4225C133.039 29.4225 131.995 28.9729 131.177 28.0739C130.404 27.1748 129.95 26.0285 129.814 24.635C129.768 23.7359 129.768 22.9717 129.814 22.3423C129.904 21.713 129.904 21.1061 129.814 20.5217C129.632 19.7575 129.314 19.2406 128.859 18.9708C128.45 18.7011 127.86 18.5662 127.088 18.5662C124.225 18.5662 122.021 19.7125 120.477 22.0052C118.977 24.2528 118.227 27.9165 118.227 32.9963C118.227 37.3568 119.068 40.7058 120.749 43.0434C122.43 45.381 125.043 46.5498 128.586 46.5498C130.677 46.5498 132.403 46.1677 133.767 45.4034C135.129 44.5943 136.379 43.448 137.515 41.9645L138.606 42.7737C137.47 45.4709 135.72 47.5388 133.357 48.9772C131.04 50.3708 128.268 51.0676 125.043 51.0676Z" fill="white"/>
<path d="M140.628 50.1236V48.775L141.514 48.5053C143.15 48.0108 143.967 46.8869 143.967 45.1337V10.4072C143.967 9.46321 143.809 8.76643 143.491 8.31689C143.173 7.82236 142.559 7.46278 141.651 7.23798L140.628 6.96825V5.6871L152.146 2.7876L153.237 3.39447L152.964 12.9021V21.5332C154.555 20.2295 156.281 19.1057 158.144 18.1617C160.052 17.2177 162.097 16.7456 164.278 16.7456C167.277 16.7456 169.617 17.5773 171.298 19.2406C173.024 20.9039 173.888 23.4662 173.888 26.9276V45.2012C173.888 46.1002 174.07 46.8195 174.433 47.359C174.797 47.8984 175.433 48.303 176.342 48.5727L176.955 48.775V50.1236H161.416V48.775L162.234 48.5053C163.869 48.0557 164.687 46.9319 164.687 45.1337V25.6464C164.687 23.8034 164.369 22.5222 163.733 21.8029C163.097 21.0837 161.984 20.724 160.393 20.724C159.303 20.724 158.144 20.9263 156.917 21.3309C155.736 21.7355 154.487 22.4098 153.169 23.3538V45.2686C153.169 46.1677 153.351 46.8869 153.714 47.4264C154.077 47.9658 154.691 48.348 155.554 48.5727L156.167 48.775V50.1236L140.628 50.1236Z" fill="white"/>
<path d="M196.734 51.0676C193.372 51.0676 190.418 50.3708 187.874 48.9772C185.375 47.5837 183.421 45.6058 182.012 43.0434C180.649 40.4811 179.968 37.4242 179.968 33.8729C179.968 30.3215 180.694 27.2647 182.148 24.7024C183.648 22.1401 185.647 20.1846 188.146 18.8359C190.691 17.4424 193.553 16.7456 196.734 16.7456C199.915 16.7456 202.754 17.4424 205.253 18.8359C207.798 20.1846 209.797 22.1401 211.251 24.7024C212.75 27.2198 213.5 30.2766 213.5 33.8729C213.5 37.4242 212.796 40.5035 211.387 43.1109C210.024 45.6732 208.093 47.6512 205.594 49.0447C203.095 50.3933 200.142 51.0676 196.734 51.0676ZM196.734 49.1796C198.369 49.1796 199.687 48.7525 200.687 47.8984C201.732 46.9993 202.482 45.4484 202.936 43.2457C203.39 41.043 203.618 37.9636 203.618 34.0078C203.618 30.0069 203.39 26.9051 202.936 24.7024C202.482 22.4547 201.732 20.9038 200.687 20.0497C199.687 19.1507 198.369 18.7011 196.734 18.7011C195.098 18.7011 193.78 19.1507 192.781 20.0497C191.782 20.9038 191.032 22.4547 190.532 24.7024C190.078 26.9051 189.85 30.0069 189.85 34.0078C189.85 37.9636 190.078 41.043 190.532 43.2457C191.032 45.4484 191.782 46.9993 192.781 47.8984C193.78 48.7525 195.098 49.1796 196.734 49.1796Z" fill="white"/>
<path d="M19.851 31.1743C19.851 45.9125 27.2427 56.2352 30.8683 60.3905C32.079 61.7781 31.767 62.4352 29.9322 62.2793C13.4366 60.8757 0.5 47.4855 0.5 31.1743C0.5 14.5469 13.943 0.954861 30.8953 0.00118455C31.5519 -0.0357474 31.9018 0.79971 31.4502 1.27776C28.132 4.79122 19.851 15.1633 19.851 31.1743Z" fill="white"/>
<path d="M45.4656 31.1876C45.4656 42.1671 41.9304 51.0676 38.3656 51.0676C34.8008 51.0676 31.2656 42.1671 31.2656 31.1876C31.2656 20.2082 34.8009 11.3076 38.3656 11.3076C41.9303 11.3076 45.4656 20.2082 45.4656 31.1876Z" fill="white"/>
</g>
</g>
<defs>
<clipPath id="clip0_105_3432">
<rect width="213.24" height="61.9812" fill="white" transform="translate(0.612305 0.481934)"/>
</clipPath>
<clipPath id="clip1_105_3432">
<rect width="213" height="62.3018" fill="white" transform="translate(0.5)"/>
</clipPath>
</defs>
</svg>
