<svg width="123" height="113" viewBox="0 0 123 113" fill="none" xmlns="http://www.w3.org/2000/svg">
<g clip-path="url(#clip0_105_3430)">
<path d="M15.33 112.944H13.0356V102.463C13.0356 101.776 12.8778 101.217 12.5647 100.784C12.2516 100.333 11.7506 100.107 11.0643 100.107C10.4181 100.107 9.887 100.353 9.47629 100.844C9.08299 101.315 8.88765 102.052 8.88765 103.051V112.944H6.59327V102.345C6.59327 101.699 6.41796 101.168 6.06471 100.756C5.71157 100.325 5.24067 100.109 4.65203 100.109C3.94574 100.109 3.39715 100.365 3.00395 100.875C2.63068 101.386 2.44535 102.052 2.44535 102.876V112.944H0.148438V98.3424H2.44282V99.9321H2.79607C3.05149 99.2448 3.42477 98.7441 3.91316 98.431C4.40409 98.0968 4.98271 97.9292 5.64895 97.9292C6.35534 97.9292 6.93387 98.1147 7.38473 98.4879C7.85562 98.8621 8.17883 99.3428 8.35667 99.9321H8.70981C9.37604 98.5986 10.4356 97.9292 11.8883 97.9292C12.9879 97.9292 13.8296 98.2824 14.4182 98.9897C15.0269 99.676 15.3299 100.578 15.3299 101.699L15.33 112.944Z" fill="white"/>
<path d="M24.2491 93.9842C24.2491 93.456 24.432 93.0101 24.7952 92.6433C25.1784 92.2606 25.6343 92.0698 26.1627 92.0698C26.6913 92.0698 27.1371 92.2606 27.5029 92.6433C27.8861 93.0101 28.0765 93.4561 28.0765 93.9842C28.0765 94.5134 27.8861 94.9698 27.5029 95.3525C27.1371 95.7183 26.6913 95.8996 26.1627 95.8996C25.6343 95.8996 25.1784 95.7162 24.7952 95.3525C24.4295 94.9698 24.2491 94.5134 24.2491 93.9842ZM20.1738 110.825H25.2936V100.463H21.2033V98.3431H27.588V110.825H32.3546V112.945H20.1738V110.825Z" fill="white"/>
<path d="M39.4916 112.943H37.1973V98.3422H39.4916V100.816H39.8448C40.7465 98.8946 42.317 97.9321 44.5513 97.9321C46.2395 97.9321 47.582 98.4603 48.5815 99.5207C49.5809 100.56 50.0819 102.132 50.0819 104.23V112.943H47.7875V104.701C47.7875 103.169 47.4444 102.021 46.758 101.257C46.0717 100.493 45.14 100.11 43.9627 100.11C42.57 100.11 41.4704 100.591 40.6664 101.553C39.8824 102.496 39.4891 103.761 39.4891 105.349V112.946L39.4916 112.943Z" fill="white"/>
<path d="M87.1294 112.944H84.8347V102.463C84.8347 101.776 84.6769 101.217 84.3638 100.784C84.0507 100.333 83.5498 100.107 82.8635 100.107C82.2172 100.107 81.6862 100.353 81.2754 100.844C80.8822 101.315 80.6869 102.052 80.6869 103.051V112.944H78.3925V102.345C78.3925 101.699 78.2171 101.168 77.8639 100.756C77.5108 100.325 77.0399 100.109 76.4513 100.109C75.7449 100.109 75.1964 100.365 74.8031 100.875C74.4299 101.386 74.2446 102.052 74.2446 102.876V112.944H71.9502V98.3424H74.2446V99.9321H74.5977C74.8533 99.2448 75.2264 98.7441 75.7148 98.431C76.2057 98.0968 76.7844 97.9292 77.4507 97.9292C78.157 97.9292 78.7356 98.1147 79.1865 98.4879C79.6574 98.8621 79.9805 99.3428 80.1583 99.9321H80.5115C81.1778 98.5986 82.2372 97.9292 83.6901 97.9292C84.7897 97.9292 85.6312 98.2824 86.2199 98.9897C86.829 99.676 87.1315 100.578 87.1315 101.699V112.944H87.1294Z" fill="white"/>
<path d="M102.564 97.9292H104.858V112.529H102.564V109.881H102.211C101.74 110.824 101.121 111.57 100.357 112.119C99.5933 112.667 98.6214 112.944 97.4439 112.944C96.6396 112.944 95.8932 112.806 95.207 112.533C94.5408 112.276 93.962 111.885 93.4708 111.354C93.0006 110.826 92.6275 110.167 92.3544 109.383C92.0983 108.597 91.9707 107.685 91.9707 106.646V97.9324H94.2656V106.352C94.2656 107.884 94.5787 109.001 95.207 109.708C95.8353 110.415 96.7946 110.768 98.0901 110.768C99.4827 110.768 100.573 110.297 101.356 109.354C102.16 108.393 102.564 107.116 102.564 105.528V97.9292Z" fill="white"/>
<path d="M112.703 101.699C112.703 102.405 112.996 102.944 113.585 103.318C114.193 103.691 115.29 103.937 116.88 104.055C118.587 104.192 119.881 104.603 120.766 105.29C121.667 105.956 122.118 106.939 122.118 108.234V108.409C122.118 109.117 121.971 109.753 121.678 110.325C121.401 110.873 121.011 111.344 120.5 111.737C120.009 112.132 119.401 112.425 118.676 112.62C117.97 112.836 117.196 112.943 116.352 112.943C115.215 112.943 114.233 112.796 113.409 112.502C112.606 112.189 111.929 111.786 111.377 111.295C110.849 110.783 110.446 110.214 110.17 109.588C109.895 108.941 109.739 108.292 109.699 107.645L111.876 107.117C111.974 108.234 112.404 109.139 113.172 109.826C113.935 110.492 114.957 110.825 116.232 110.825C117.311 110.825 118.174 110.62 118.822 110.207C119.488 109.776 119.821 109.177 119.821 108.409C119.821 107.585 119.498 106.997 118.849 106.643C118.203 106.289 117.153 106.064 115.701 105.966C114.013 105.849 112.72 105.455 111.816 104.788C110.915 104.122 110.463 103.149 110.463 101.874V101.699C110.463 101.011 110.611 100.412 110.904 99.9012C111.197 99.3731 111.59 98.9293 112.082 98.5761C112.593 98.2219 113.161 97.9563 113.787 97.7813C114.416 97.6063 115.072 97.5156 115.759 97.5156C116.72 97.5156 117.562 97.6537 118.289 97.9268C119.015 98.1819 119.623 98.5255 120.112 98.9567C120.602 99.3678 120.976 99.8485 121.229 100.4C121.505 100.949 121.68 101.498 121.758 102.05L119.581 102.578C119.483 101.635 119.1 100.898 118.434 100.37C117.788 99.8411 116.933 99.5755 115.873 99.5755C115.463 99.5755 115.06 99.6261 114.666 99.7241C114.293 99.801 113.96 99.9286 113.667 100.107C113.374 100.283 113.139 100.511 112.961 100.784C112.786 101.04 112.695 101.342 112.695 101.695L112.703 101.699Z" fill="white"/>
<path d="M58.9985 93.9842C58.9985 93.456 59.1814 93.0101 59.5446 92.6433C59.9278 92.2606 60.3837 92.0698 60.9122 92.0698C61.4407 92.0698 61.8865 92.2606 62.2522 92.6433C62.6355 93.0101 62.8259 93.4561 62.8259 93.9842C62.8259 94.5134 62.6355 94.9698 62.2522 95.3525C61.8865 95.7183 61.4407 95.8996 60.9122 95.8996C60.3837 95.8996 59.9278 95.7162 59.5446 95.3525C59.1789 94.9698 58.9985 94.5134 58.9985 93.9842ZM54.9258 110.825H60.0455V100.463H55.9553V98.3431H62.3399V110.825H67.1065V112.945H54.9258V110.825Z" fill="white"/>
<path d="M25.8652 0V71.4913H97.3429V0H25.8652ZM61.8864 47.5845H58.2681V31.0561C58.2681 29.9728 58.02 29.0909 57.5238 28.4104C57.0273 27.6993 56.2396 27.3439 55.1563 27.3439C54.1336 27.3439 53.2987 27.7294 52.6481 28.5041C52.0278 29.2484 51.7192 30.4088 51.7192 31.9849V47.5845H48.0976V30.8716C48.0976 29.8488 47.8191 29.0139 47.2627 28.3633C46.706 27.6826 45.9617 27.3405 45.0327 27.3405C43.9196 27.3405 43.051 27.7428 42.4341 28.5478C41.8473 29.3523 41.5521 30.4055 41.5521 31.7031V47.5812H37.9305V24.554H41.5521V27.0623H42.1087C42.511 25.9791 43.0981 25.191 43.8725 24.6948C44.6471 24.1683 45.5592 23.9065 46.6121 23.9065C47.7255 23.9065 48.6409 24.2017 49.3517 24.7885C50.0927 25.3756 50.6059 26.1332 50.8843 27.0623H51.4408C52.4939 24.9563 54.1637 23.9065 56.4539 23.9065C58.1875 23.9065 59.5189 24.4635 60.4477 25.5765C61.4069 26.6598 61.8864 28.0851 61.8864 29.8488V47.5845ZM85.2771 37.433H68.4942V34.0585H85.2771V37.433Z" fill="white"/>
</g>
<defs>
<clipPath id="clip0_105_3430">
<rect width="121.97" height="112.945" fill="white" transform="translate(0.148438)"/>
</clipPath>
</defs>
</svg>
