<svg width="195" height="45" viewBox="0 0 195 45" fill="none" xmlns="http://www.w3.org/2000/svg">
<g clip-path="url(#clip0_105_3431)">
<path d="M90.2387 8.59574C86.5111 8.59574 83.6196 9.64525 81.5667 11.7397C79.5094 13.8342 78.4814 16.7784 78.4814 20.5738V43.2223H83.6775V21.0333C83.6775 18.4579 84.3028 16.5279 85.561 15.2417C86.8162 13.9525 88.5701 13.3086 90.8226 13.3086C91.6905 13.3086 92.5979 13.4177 93.5527 13.6359V8.98758C92.7717 8.72485 91.6691 8.59424 90.2402 8.59424" fill="white"/>
<path d="M126.189 13.6696C122.833 10.289 118.644 8.59717 113.619 8.59717C108.594 8.59717 104.404 10.289 101.049 13.6696C97.6938 17.0534 96.0176 21.296 96.0176 26.4007C96.0176 31.5054 97.6815 35.7634 101.018 39.1655C104.352 42.5676 108.554 44.2702 113.619 44.2702C118.684 44.2702 122.885 42.5691 126.222 39.1655C129.556 35.7634 131.223 31.5069 131.223 26.4007C131.223 21.2945 129.547 17.0534 126.189 13.6696ZM122.455 35.7941C120.117 38.3035 117.17 39.5588 113.619 39.5588C110.068 39.5588 107.134 38.3127 104.816 35.828C102.501 33.34 101.343 30.1961 101.343 26.4007C101.343 22.6052 102.502 19.4642 104.816 16.9765C107.134 14.4887 110.068 13.2455 113.619 13.2455C117.17 13.2455 120.117 14.4887 122.455 16.9765C124.795 19.4642 125.964 22.6051 125.964 26.4007C125.964 30.1963 124.795 33.2848 122.455 35.7941Z" fill="white"/>
<path d="M166.919 13.6696C163.564 10.289 159.375 8.59717 154.349 8.59717C149.324 8.59717 145.134 10.289 141.78 13.6696C138.424 17.0534 136.748 21.296 136.748 26.4007C136.748 31.5054 138.412 35.7634 141.749 39.1655C145.082 42.5676 149.285 44.2702 154.349 44.2702C159.415 44.2702 163.616 42.5691 166.952 39.1655C170.287 35.7634 171.954 31.5069 171.954 26.4007C171.954 21.2945 170.275 17.0534 166.919 13.6696ZM163.187 35.7941C160.845 38.3035 157.9 39.5588 154.349 39.5588C150.799 39.5588 147.865 38.3127 145.547 35.828C143.232 33.34 142.074 30.1961 142.074 26.4007C142.074 22.6052 143.233 19.4642 145.547 16.9765C147.865 14.4887 150.799 13.2455 154.349 13.2455C157.9 13.2455 160.845 14.4887 163.187 16.9765C165.525 19.4642 166.694 22.6051 166.694 26.4007C166.694 30.1963 165.525 33.2848 163.187 35.7941Z" fill="white"/>
<path d="M182.225 9.6446L179.975 14.2284H194.612V9.6446H182.225ZM185.077 37.1658C183.778 35.8796 183.128 33.9727 183.128 31.4403V0.675293H177.932V31.9643C177.932 35.8042 178.959 38.7485 181.017 40.7983C183.074 42.8498 185.987 43.8731 189.754 43.8731C191.183 43.8731 192.436 43.655 193.521 43.2201V38.6378C192.74 38.9436 191.747 39.0974 190.532 39.0974C188.195 39.0974 186.379 38.455 185.075 37.1642" fill="white"/>
<path d="M43.0491 0.675293C30.0883 0.675293 19.5439 11.2994 19.5439 24.3582V43.417H33.8967V24.3582C33.8967 19.2737 38.0028 15.1366 43.0491 15.1366H53.3235V0.675293H43.0491Z" fill="white"/>
<path d="M0.118164 12.0776V26.5389H10.3926C15.4389 26.5389 19.545 30.6759 19.545 35.7604V43.4164H33.8978V35.7604C33.8978 22.7017 23.3534 12.0776 10.3926 12.0776L0.118164 12.0776Z" fill="white"/>
</g>
<defs>
<clipPath id="clip0_105_3431">
<rect width="194.494" height="43.5947" fill="white" transform="translate(0.118164 0.675293)"/>
</clipPath>
</defs>
</svg>
